<svg width="1634" height="1154" viewBox="0 0 1634 1154" fill="none" xmlns="http://www.w3.org/2000/svg">
    <g opacity="0.2">
        <path fill-rule="evenodd" clip-rule="evenodd" d="M789.869 260.095C872.34 259.44 944.797 223.922 1027.15 220.948C1144.44 216.713 1328.25 166.307 1374.05 239.001C1428.43 325.322 1186.52 396.249 1196.5 489.75C1204.33 562.985 1387.3 577.955 1417.78 648.463C1447.3 716.721 1442.24 815.205 1354.27 854.664C1253.11 900.042 1112.57 817.737 994.824 838.192C907.717 853.324 878.4 941.943 789.869 952.71C703.556 963.208 631.074 906.575 545.784 892.808C436.199 875.119 265.145 928.009 215.507 860.001C158.97 782.541 350.099 706.363 346.748 620.113C344.301 557.129 197.602 524.629 200.03 461.644C202.326 402.083 295.366 362.765 358.285 320.796C416.606 281.895 474.844 236.004 555.267 224.692C634.711 213.519 708.71 260.739 789.869 260.095Z" fill="url(#paint0_linear_1298_3761)"/>
    </g>
    <defs>
        <linearGradient id="paint0_linear_1298_3761" x1="817" y1="200" x2="817" y2="954" gradientUnits="userSpaceOnUse">
            <stop stop-color="#7623EF"/>
            <stop offset="0.5" stop-color="#1E69FE"/>
            <stop offset="1" stop-color="#F500CC"/>
        </linearGradient>
    </defs>
</svg>