<svg width="22" height="20" viewBox="0 0 22 20" fill="none" xmlns="http://www.w3.org/2000/svg">
<path d="M18.9064 2.7125H18.9062H10.6203L8.70388 0.796144C8.70387 0.79614 8.70387 0.796136 8.70387 0.796132C8.55036 0.642583 8.34214 0.556296 8.12502 0.55625H8.125L3.09375 0.55625L3.09364 0.55625C2.49548 0.556907 1.922 0.794818 1.49903 1.21778C1.07607 1.64075 0.838157 2.21423 0.8375 2.81239V2.8125L0.8375 17.1875L0.8375 17.1876C0.838157 17.7858 1.07607 18.3593 1.49903 18.7822C1.922 19.2052 2.49548 19.4431 3.09364 19.4438H3.09375H18.9062H18.9064C19.5045 19.4431 20.078 19.2052 20.501 18.7822C20.9239 18.3593 21.1618 17.7858 21.1625 17.1876V17.1875V4.96875V4.96864C21.1618 4.37048 20.9239 3.797 20.501 3.37403C20.078 2.95107 19.5045 2.71316 18.9064 2.7125ZM19.525 4.96888V6.39987C19.3247 6.3399 19.1168 6.30832 18.9072 6.30625H18.9062L3.09375 6.30625L3.09277 6.30625C2.88324 6.30832 2.67528 6.3399 2.475 6.39987L2.475 2.81263C2.475 2.8126 2.475 2.81257 2.475 2.81254C2.47524 2.6485 2.5405 2.49125 2.6565 2.37525C2.7725 2.25925 2.92975 2.19399 3.09379 2.19375C3.09382 2.19375 3.09385 2.19375 3.09388 2.19375L7.78595 2.19375L9.70237 4.11011C9.85588 4.26366 10.0641 4.34995 10.2812 4.35H10.2812H18.9061C19.0702 4.35021 19.2275 4.41548 19.3435 4.5315C19.4595 4.64752 19.5248 4.80481 19.525 4.96888ZM19.525 17.1874C19.5248 17.3514 19.4595 17.5087 19.3435 17.6247C19.2275 17.7408 19.0702 17.806 18.9061 17.8062H3.09388C2.92981 17.806 2.77252 17.7408 2.6565 17.6247C2.5405 17.5088 2.47524 17.3515 2.475 17.1875C2.475 17.1874 2.475 17.1874 2.475 17.1874V8.56263C2.475 8.5626 2.475 8.56257 2.475 8.56254C2.47524 8.3985 2.5405 8.24125 2.6565 8.12525C2.77252 8.00923 2.92981 7.94396 3.09388 7.94375H18.9061C19.0702 7.94396 19.2275 8.00923 19.3435 8.12525C19.4595 8.24127 19.5248 8.39856 19.525 8.56263V17.1874Z" fill="#1E69FE" stroke="#1E69FE" stroke-width="0.2"/>
</svg>
