<svg width="24" height="24" viewBox="0 0 24 24" fill="none" xmlns="http://www.w3.org/2000/svg">
<path d="M11.1514 0.35114L7.926 3.57743C7.84453 3.65613 7.77954 3.75026 7.73483 3.85434C7.69012 3.95841 7.66659 4.07035 7.66561 4.18362C7.66462 4.29689 7.6862 4.40922 7.7291 4.51406C7.77199 4.6189 7.83533 4.71414 7.91543 4.79424C7.99553 4.87434 8.09077 4.93768 8.19561 4.98058C8.30045 5.02347 8.41278 5.04505 8.52605 5.04407C8.63932 5.04308 8.75126 5.01955 8.85534 4.97484C8.95942 4.93013 9.05355 4.86514 9.13224 4.78367L11.1472 2.76873L11.1472 11.1467L2.76922 11.1467L4.78416 9.13175C4.93956 8.97086 5.02554 8.75537 5.0236 8.5317C5.02165 8.30803 4.93194 8.09407 4.77377 7.9359C4.61561 7.77774 4.40165 7.68802 4.17798 7.68608C3.95431 7.68413 3.73882 7.77012 3.57793 7.92551L0.351634 11.1467C0.240153 11.2581 0.151721 11.3905 0.0913868 11.5361C0.0310527 11.6817 -5.31625e-07 11.8378 -5.24734e-07 11.9955C-5.17843e-07 12.1531 0.0310527 12.3092 0.0913868 12.4549C0.151721 12.6005 0.240153 12.7328 0.351634 12.8443L3.57793 16.0697C3.73882 16.2251 3.95431 16.3111 4.17798 16.3092C4.40165 16.3072 4.61561 16.2175 4.77377 16.0593C4.93194 15.9012 5.02165 15.6872 5.0236 15.4635C5.02554 15.2399 4.93956 15.0244 4.78416 14.8635L2.76922 12.8528L11.1472 12.8528L11.1472 21.2308L9.13224 19.2158C8.97135 19.0604 8.75586 18.9745 8.53219 18.9764C8.30852 18.9783 8.09456 19.0681 7.9364 19.2262C7.77823 19.3844 7.68851 19.5984 7.68657 19.822C7.68463 20.0457 7.77061 20.2612 7.92601 20.4221L11.1514 23.6484C11.2629 23.7598 11.3952 23.8483 11.5409 23.9086C11.6865 23.9689 11.8426 24 12.0002 24C12.1579 24 12.314 23.9689 12.4596 23.9086C12.6053 23.8483 12.7376 23.7598 12.849 23.6484L16.0745 20.4221C16.2299 20.2612 16.3159 20.0457 16.3139 19.822C16.312 19.5984 16.2223 19.3844 16.0641 19.2262C15.9059 19.0681 15.692 18.9783 15.4683 18.9764C15.2446 18.9745 15.0291 19.0604 14.8683 19.2158L12.8533 21.2308L12.8533 12.8528L21.2313 12.8528L19.2163 14.8678C19.1349 14.9465 19.0699 15.0406 19.0252 15.1447C18.9804 15.2487 18.9569 15.3607 18.9559 15.4739C18.9549 15.5872 18.9765 15.6995 19.0194 15.8044C19.0623 15.9092 19.1257 16.0045 19.2058 16.0846C19.2859 16.1647 19.3811 16.228 19.4859 16.2709C19.5908 16.3138 19.7031 16.3354 19.8164 16.3344C19.9296 16.3334 20.0416 16.3099 20.1457 16.2652C20.2497 16.2205 20.3439 16.1555 20.4226 16.074L23.648 12.8486C23.7596 12.7372 23.8481 12.6048 23.9085 12.4592C23.9689 12.3135 24 12.1574 24 11.9998C24 11.8421 23.9689 11.686 23.9085 11.5403C23.8481 11.3947 23.7596 11.2623 23.648 11.1509L20.4217 7.92551C20.343 7.84403 20.2489 7.77904 20.1448 7.73434C20.0407 7.68963 19.9288 7.66609 19.8155 7.66511C19.7023 7.66413 19.5899 7.68571 19.4851 7.7286C19.3802 7.7715 19.285 7.83484 19.2049 7.91494C19.1248 7.99503 19.0615 8.09028 19.0186 8.19512C18.9757 8.29995 18.9541 8.41229 18.9551 8.52556C18.9561 8.63883 18.9796 8.75076 19.0243 8.85484C19.069 8.95892 19.134 9.05305 19.2155 9.13174L21.2313 11.1467L12.8533 11.1467L12.8533 2.76873L14.8683 4.78367C14.9469 4.86514 15.0411 4.93013 15.1452 4.97484C15.2492 5.01955 15.3612 5.04308 15.4744 5.04407C15.5877 5.04505 15.7 5.02347 15.8049 4.98057C15.9097 4.93768 16.005 4.87434 16.0851 4.79424C16.1652 4.71414 16.2285 4.6189 16.2714 4.51406C16.3143 4.40922 16.3359 4.29689 16.3349 4.18362C16.3339 4.07035 16.3104 3.95841 16.2657 3.85434C16.221 3.75026 16.156 3.65613 16.0745 3.57743L12.8533 0.35114C12.7419 0.23966 12.6095 0.151224 12.4639 0.0908884C12.3183 0.0305552 12.1622 -0.00049835 12.0045 -0.000498343C11.8469 -0.000498336 11.6908 0.0305552 11.5451 0.0908885C11.3995 0.151224 11.2672 0.23966 11.1557 0.35114L11.1514 0.35114Z" fill="#1E69FE"/>
</svg>
