<svg width="24" height="16" viewBox="0 0 24 16" fill="none" xmlns="http://www.w3.org/2000/svg">
<path d="M17.992 3.99926C17.7737 3.99926 17.5557 4.01147 17.3388 4.03589C15.7005 0.532628 11.5324 -0.979254 8.02914 0.659078C5.86415 1.67155 4.36499 3.71831 4.05293 6.08794C1.34093 6.60632 -0.437296 9.22501 0.0810059 11.9369C0.531576 14.2943 2.59366 15.9988 4.99368 15.9977H17.992C21.3053 15.9977 23.9912 13.3118 23.9912 9.99853C23.9912 6.68524 21.3053 3.99926 17.992 3.99926ZM17.992 13.9979H4.99368C3.33703 13.9979 1.99404 12.6549 1.99404 10.9983C1.99404 9.34164 3.33703 7.99865 4.99368 7.99865C5.65173 7.99611 6.29161 8.21435 6.81086 8.61855C7.25365 8.94849 7.88009 8.85699 8.21002 8.4142C8.53095 7.98347 8.45421 7.37614 8.03627 7.03879C7.45983 6.59535 6.79204 6.28576 6.08115 6.13242C6.55752 3.41497 9.14663 1.59815 11.8641 2.07452C13.6926 2.39508 15.1926 3.70312 15.7588 5.47103C15.9125 5.96578 15.9912 6.48074 15.9922 6.99882C15.9922 7.55106 16.4398 7.99873 16.9921 7.99873C17.5443 7.99873 17.992 7.55106 17.992 6.99882C17.9901 6.66584 17.9647 6.33343 17.9161 6.00408C17.9414 6.00357 17.9667 5.99899 17.992 5.99899C20.2009 5.99899 21.9914 7.78965 21.9914 9.99846C21.9914 12.2073 20.2008 13.9979 17.992 13.9979Z" fill="#1E69FE"/>
</svg>
