<svg width="24" height="26" viewBox="0 0 24 26" fill="none" xmlns="http://www.w3.org/2000/svg">
<path d="M4.81774 7.74107C5.0628 7.40714 4.99075 6.93778 4.65681 6.69271C4.52313 6.59461 4.36769 6.54731 4.21366 6.54731C3.98299 6.54731 3.75541 6.65339 3.60841 6.85364C2.293 8.64609 1.59766 10.7714 1.59766 12.9998C1.59766 15.7774 2.6793 18.3887 4.64336 20.3528C6.60742 22.3169 9.21878 23.3985 11.9964 23.3985C13.6735 23.3985 15.292 23.0049 16.7539 22.2496L16.27 24.0557C16.1628 24.4558 16.4002 24.867 16.8003 24.9742C17.2003 25.0815 17.6117 24.844 17.7189 24.4439L18.668 20.9017C18.7195 20.7096 18.6925 20.5049 18.5931 20.3326C18.4937 20.1603 18.3298 20.0346 18.1377 19.9831L14.5954 19.034C14.1954 18.9268 13.7841 19.1642 13.6769 19.5643C13.5697 19.9644 13.8071 20.3756 14.2072 20.4828L15.983 20.9586C14.7545 21.5767 13.3994 21.8985 11.9964 21.8985C7.08958 21.8985 3.09766 17.9066 3.09766 12.9998C3.09766 11.0928 3.69245 9.2744 4.81774 7.74107Z" fill="#1E69FE"/>
<path d="M3.60821 6.85349L3.54391 6.8063C2.21841 8.61251 1.51766 10.7544 1.51766 12.9998C1.51766 15.7986 2.60773 18.4303 4.58679 20.4094C6.56586 22.3884 9.19757 23.4785 11.9964 23.4785C13.6251 23.4785 15.1993 23.11 16.6303 22.4017L16.1927 24.035C16.0741 24.4777 16.3368 24.9329 16.7796 25.0515M3.60821 6.85349L16.726 22.3538L16.27 24.0557C16.1628 24.4558 16.4002 24.867 16.8003 24.9742C17.2003 25.0815 17.6117 24.844 17.7189 24.4439L18.668 20.9017M3.60821 6.85349L3.54392 6.8063C3.70662 6.58465 3.9586 6.46731 4.21366 6.46731C4.38414 6.46731 4.55627 6.5197 4.70414 6.62822C5.0737 6.89942 5.15343 7.41885 4.88223 7.7884L4.81774 7.74107L4.88223 7.78841C3.76705 9.30797 3.17766 11.1098 3.17766 12.9998C3.17766 17.8624 7.13376 21.8185 11.9964 21.8185C13.3146 21.8185 14.5897 21.5319 15.7557 20.9806M3.60821 6.85349L15.7557 20.9806M16.7796 25.0515L16.8003 24.9742L16.7796 25.0515C16.7796 25.0515 16.7796 25.0515 16.7796 25.0515ZM16.7796 25.0515C17.2223 25.1702 17.6775 24.9074 17.7961 24.4647L18.7453 20.9224L18.668 20.9017M18.668 20.9017L18.7453 20.9224C18.8023 20.7098 18.7724 20.4832 18.6624 20.2926L18.6624 20.2926C18.5523 20.1019 18.371 19.9629 18.1585 19.9059L18.1584 19.9059L14.6161 18.9567C14.1734 18.838 13.7182 19.1008 13.5996 19.5436C13.481 19.9864 13.7437 20.4415 14.1865 20.5601L15.7557 20.9806M18.668 20.9017C18.7195 20.7096 18.6925 20.5049 18.5931 20.3326C18.4937 20.1603 18.3298 20.0346 18.1377 19.9831L14.5954 19.034C14.1954 18.9268 13.7841 19.1642 13.6769 19.5643C13.5697 19.9644 13.8071 20.3756 14.2072 20.4828L15.7557 20.9806" stroke="#1E69FE" stroke-width="0.16"/>
<path d="M20.7493 19.1961L20.6848 19.1488L20.7493 19.1961C20.4781 19.5656 19.9587 19.6454 19.5892 19.3742C19.2196 19.103 19.1399 18.5835 19.4111 18.214C20.5263 16.6944 21.1156 14.8926 21.1156 13.0026C21.1156 8.14001 17.1595 4.1839 12.2969 4.1839C10.981 4.1839 9.7051 4.47069 8.53836 5.022L10.1069 5.4423C10.5496 5.56094 10.8124 6.01604 10.6937 6.45885C10.5751 6.90162 10.1199 7.16451 9.67718 7.0457L6.13496 6.09653C5.69221 5.9779 5.4294 5.52275 5.5481 5.07998L6.49727 1.53774L6.57454 1.55845L6.49727 1.53774C6.59668 1.16684 6.93205 0.922367 7.29848 0.922367C7.36969 0.922367 7.44199 0.931618 7.51374 0.950827L7.51376 0.95083C7.95651 1.06947 8.21932 1.52461 8.10062 1.96738L7.66281 3.60123C9.09492 2.89284 10.6707 2.52385 12.2969 2.52385C15.0957 2.52385 17.7274 3.61392 19.7065 5.59299C21.6856 7.57205 22.7756 10.2038 22.7756 13.0026C22.7756 15.2479 22.0749 17.3898 20.7493 19.1961Z" fill="#1E69FE" stroke="#1E69FE" stroke-width="0.16"/>
</svg>
