<svg width="27" height="28" viewBox="0 0 27 28" fill="none" xmlns="http://www.w3.org/2000/svg">
<mask id="path-1-inside-1_1147_1706" fill="white">
<path d="M27 13.9727C27 16.0102 26.5388 18.0214 25.6509 19.8554C24.763 21.6893 23.4715 23.2985 21.8732 24.5623C20.2748 25.8261 18.4112 26.7117 16.4219 27.1527C14.4326 27.5937 12.3693 27.5787 10.3866 27.1087L13.5 13.9727H27Z"/>
</mask>
<path d="M27 13.9727C27 16.0102 26.5388 18.0214 25.6509 19.8554C24.763 21.6893 23.4715 23.2985 21.8732 24.5623C20.2748 25.8261 18.4112 26.7117 16.4219 27.1527C14.4326 27.5937 12.3693 27.5787 10.3866 27.1087L13.5 13.9727H27Z" stroke="#FF663D" stroke-width="6" mask="url(#path-1-inside-1_1147_1706)"/>
<circle cx="13.5" cy="13.9727" r="10.5" fill="white"/>
</svg>
