<svg width="89" height="89" viewBox="0 0 89 89" fill="none" xmlns="http://www.w3.org/2000/svg">
<path d="M28.0397 40.6538L27.2072 44.6309C27.0036 45.6039 28.1902 46.2458 28.8931 45.5429L48.6848 25.7512C48.7393 25.6967 48.7988 25.6492 48.8666 25.6124C49.465 25.2875 52.6511 23.778 55.5605 26.6875C57.9181 29.045 56.3478 31.5486 56.1006 31.9087C56.0794 31.9395 56.0565 31.9664 56.0309 31.9936L46.1216 42.5127C45.6164 43.049 45.8384 43.951 46.5035 44.268C47.593 44.7872 48.9672 45.6286 49.4461 46.7277C49.8357 47.6216 49.7479 48.95 49.6215 49.845C49.5456 50.3823 49.8625 50.9195 50.3718 51.1066C51.6245 51.5667 53.7719 52.5477 54.3711 54.0302C54.7544 54.9785 54.6006 56.3709 54.4263 57.2995C54.3241 57.8435 54.6323 58.4044 55.1445 58.6139C56.0747 58.9944 57.4288 59.6881 57.9374 60.6534C58.7141 62.1275 57.774 64.718 57.4991 65.4064C57.453 65.5218 57.3829 65.6235 57.295 65.7114L48.9645 74.0419C48.9459 74.0604 48.9306 74.0768 48.9135 74.0966C48.5989 74.4605 45.1403 78.4145 42.1436 79.8438C38.2826 81.6853 35.4602 82.0855 31.2747 81.2024C27.1616 80.3346 22.1055 75.7414 21.7809 75.4435C21.7695 75.4331 21.7592 75.4239 21.7474 75.4139C21.4164 75.1317 16.3371 70.763 14.6317 66.937C12.2427 61.5772 12.861 57.8137 12.928 57.4548C12.9318 57.4343 12.9362 57.4167 12.9418 57.3965L19.0006 35.5185C19.0318 35.406 19.0811 35.3009 19.1562 35.2116C19.5909 34.6949 21.3121 32.9359 23.9722 33.8209C25.5011 34.3295 26.378 35.4658 27.1989 37.0476C28.1448 38.8702 28.0738 40.317 28.052 40.5735C28.0497 40.6005 28.0452 40.6272 28.0397 40.6538Z" fill="white"/>
<path d="M67.7891 13.4414L58.4486 22.7819" stroke="white" stroke-width="4" stroke-linecap="round"/>
<path d="M70.6758 25.5L61.2281 28.1546" stroke="white" stroke-width="4" stroke-linecap="round"/>
<path d="M55.3906 10.2148L52.736 19.6625" stroke="white" stroke-width="4" stroke-linecap="round"/>
</svg>
