<svg width="228" height="50" viewBox="0 0 228 50" fill="none" xmlns="http://www.w3.org/2000/svg">
<path d="M191.52 40.4009V14.1614H196.906L197.006 18.1211C197.824 16.6508 198.935 15.5147 200.338 14.7127C201.758 13.9108 203.328 13.5098 205.048 13.5098C207.921 13.5098 210.175 14.27 211.812 15.7904C213.466 17.2941 214.292 19.5078 214.292 22.4317V40.4009H208.605V23.9103C208.555 21.8553 208.104 20.3683 207.253 19.4494C206.401 18.5304 205.106 18.071 203.369 18.071C201.549 18.071 200.063 18.7226 198.91 20.0258C197.774 21.3123 197.207 22.9329 197.207 24.8877V40.4009H191.52Z" fill="white"/>
<path d="M182.551 31.5541V27.3187C181.783 27.8199 180.238 28.2126 177.917 28.4966C175.612 28.7973 173.875 29.215 172.706 29.7497C171.536 30.2843 170.952 31.4037 170.952 33.1079C170.952 34.3109 171.495 35.188 172.58 35.7394C173.666 36.274 174.852 36.5414 176.138 36.5414C177.674 36.5414 179.127 36.1237 180.497 35.2883C181.867 34.4529 182.551 33.2082 182.551 31.5541ZM188.313 21.0533V34.6367C188.313 35.8563 188.89 36.4912 190.042 36.5414C190.259 36.5414 190.602 36.5079 191.069 36.4411V40.4009C189.967 40.852 188.773 41.0775 187.487 41.0775C184.898 41.0775 183.445 40.0082 183.128 37.8696C182.142 38.8721 180.848 39.649 179.244 40.2004C177.641 40.7851 175.996 41.0775 174.309 41.0775C172.672 41.0775 171.161 40.8018 169.774 40.2505C168.405 39.6824 167.303 38.822 166.467 37.6691C165.632 36.5163 165.215 35.0961 165.215 33.4087C165.215 31.387 165.674 29.8165 166.593 28.6971C167.511 27.5777 168.647 26.7924 170 26.3413C171.369 25.8902 173.115 25.5143 175.236 25.2135C176.773 24.9963 178.125 24.8042 179.294 24.6371C180.464 24.47 181.366 24.1776 182 23.76C182.652 23.3423 182.977 22.6405 182.977 21.6548C182.977 19.2656 181.182 18.071 177.591 18.071C174.05 18.071 172.129 19.4744 171.829 22.2813H166.042C166.275 19.1069 167.495 16.8513 169.699 15.5147C171.921 14.1781 174.668 13.5098 177.942 13.5098C180.798 13.5098 183.236 14.1196 185.257 15.3393C187.295 16.5756 188.313 18.4803 188.313 21.0533Z" fill="white"/>
<path d="M157.719 40.4018V4.0625H163.431V40.4018H157.719Z" fill="white"/>
<path d="M149.852 27.3187C149.852 25.698 149.577 24.1776 149.025 22.7575C148.491 21.3373 147.689 20.2012 146.62 19.3491C145.551 18.497 144.265 18.071 142.762 18.071C141.176 18.071 139.823 18.497 138.704 19.3491C137.551 20.2179 136.683 21.3624 136.098 22.7826C135.53 24.2027 135.246 25.7148 135.246 27.3187C135.246 28.9059 135.539 30.4096 136.123 31.8298C136.708 33.2499 137.568 34.3944 138.704 35.2632C139.839 36.1153 141.192 36.5414 142.762 36.5414C144.399 36.5414 145.752 36.107 146.821 35.2382C147.89 34.3694 148.658 33.2416 149.126 31.8548C149.61 30.4681 149.852 28.9561 149.852 27.3187ZM129.91 49.9994V14.1614H135.322L135.372 18.0209C136.19 16.3501 137.284 15.1889 138.654 14.5373C140.057 13.8523 141.652 13.5098 143.439 13.5098C146.094 13.5098 148.332 14.1196 150.153 15.3393C151.99 16.5589 153.359 18.2297 154.261 20.3516C155.18 22.4568 155.639 24.8125 155.639 27.4189C155.639 29.875 155.23 32.1472 154.412 34.2357C153.577 36.3075 152.316 37.9782 150.629 39.248C148.942 40.5011 146.888 41.1276 144.466 41.1276C142.679 41.1276 141 40.7768 139.43 40.075C138.679 39.7576 138.061 39.4234 137.576 39.0726C137.109 38.705 136.733 38.3625 136.449 38.0451C136.165 37.7276 135.956 37.4853 135.823 37.3183C135.706 37.1512 135.639 37.0677 135.622 37.0677V49.9994H129.91Z" fill="white"/>
<path d="M101.824 18.4224V14.3568L104.03 14.162H106.158V6.26758H111.87V14.162H117.081V18.4224H111.845V32.482C111.845 33.8687 112.012 34.8294 112.346 35.3641C112.68 35.882 113.44 36.141 114.626 36.141C115.662 36.141 116.48 36.0742 117.081 35.9405V40.4015C116.664 40.4015 116.046 40.4349 115.227 40.5017C114.409 40.5685 113.783 40.602 113.348 40.602C111.862 40.602 110.651 40.4683 109.716 40.201C108.797 39.9169 108.087 39.5076 107.586 38.9729C107.069 38.4216 106.709 37.7449 106.509 36.943C106.309 36.141 106.192 35.1385 106.158 33.9356L106.133 18.4224H101.824Z" fill="white"/>
<path d="M89.8711 40.4016V14.1621H95.1823L95.2073 19.2496C96.0758 15.4904 99.3494 14.1621 105.028 14.1621V18.4481C103.942 18.3144 103.856 18.4481 103.372 18.4481C102.019 18.4481 100.109 19.2997 99.0404 20.0015C97.9715 20.7032 97.128 21.7391 96.5101 23.1091C95.8921 24.4624 95.5831 26.0497 95.5831 27.8708L95.5581 40.4016H89.8711Z" fill="white"/>
<path d="M81.0279 31.5541V27.3187C80.2596 27.8199 78.7147 28.2126 76.3931 28.4966C74.0883 28.7973 72.3513 29.215 71.1822 29.7497C70.013 30.2843 69.4285 31.4037 69.4285 33.1079C69.4285 34.3109 69.9713 35.188 71.0569 35.7394C72.1425 36.274 73.3283 36.5414 74.6144 36.5414C76.151 36.5414 77.604 36.1237 78.9736 35.2883C80.3431 34.4529 81.0279 33.2082 81.0279 31.5541ZM86.79 21.0533V34.6367C86.79 35.8563 87.3662 36.4912 88.5186 36.5414C88.7358 36.5414 89.0781 36.5079 89.5458 36.4411V40.4009C88.4435 40.852 87.2493 41.0775 85.9633 41.0775C83.3745 41.0775 81.9214 40.0082 81.6041 37.8696C80.6187 38.8721 79.3243 39.649 77.7209 40.2004C76.1176 40.7851 74.4724 41.0775 72.7855 41.0775C71.1488 41.0775 69.6372 40.8018 68.251 40.2505C66.8814 39.6824 65.7791 38.822 64.944 37.6691C64.1089 36.5163 63.6914 35.0961 63.6914 33.4087C63.6914 31.387 64.1507 29.8165 65.0693 28.6971C65.9879 27.5777 67.1236 26.7924 68.4765 26.3413C69.846 25.8902 71.5914 25.5143 73.7125 25.2135C75.2491 24.9963 76.6019 24.8042 77.771 24.6371C78.9402 24.47 79.8421 24.1776 80.4767 23.76C81.1281 23.3423 81.4538 22.6405 81.4538 21.6548C81.4538 19.2656 79.6583 18.071 76.0674 18.071C72.5267 18.071 70.606 19.4744 70.3053 22.2813H64.5181C64.752 19.1069 65.9712 16.8513 68.1758 15.5147C70.3972 14.1781 73.1446 13.5098 76.4182 13.5098C79.2742 13.5098 81.7127 14.1196 83.7336 15.3393C85.7712 16.5756 86.79 18.4803 86.79 21.0533Z" fill="white"/>
<path d="M24.75 40.4009V14.1614H30.1363L30.2365 17.8705C31.0883 16.5506 32.3076 15.498 33.8942 14.7127C35.4809 13.9108 37.101 13.5098 38.7545 13.5098C40.291 13.5098 41.6606 13.869 42.8631 14.5874C44.0823 15.3058 44.9842 16.4002 45.5688 17.8705C47.5062 14.9633 50.1952 13.5098 53.6358 13.5098C56.5085 13.5098 58.6964 14.2115 60.1996 15.6149C61.7028 17.0017 62.4543 19.2572 62.4543 22.3816V40.4009H56.6421V24.988C56.6421 23.384 56.5419 22.1059 56.3415 21.1536C56.1578 20.1845 55.7235 19.4327 55.0387 18.898C54.3707 18.3467 53.3351 18.071 51.9322 18.071C48.2244 18.071 46.3705 20.3766 46.3705 24.988V40.4009H40.6334V23.5093C40.6334 21.6381 40.291 20.268 39.6063 19.3992C38.9215 18.5137 37.7273 18.071 36.0237 18.071C34.5039 18.071 33.1844 18.6725 32.0654 19.8754C30.9631 21.0784 30.4119 22.7157 30.4119 24.7875V40.4009H24.75Z" fill="white"/>
<path d="M0 31.9802H5.86234C5.97925 33.5507 6.55546 34.7035 7.59097 35.4387C8.64319 36.1738 9.99604 36.5414 11.6495 36.5414C15.5577 36.5414 17.5119 35.3635 17.5119 33.0077C17.445 32.306 17.1611 31.7295 16.6601 31.2784C16.1757 30.8106 15.5744 30.443 14.8563 30.1757C14.1381 29.9084 13.2028 29.6494 12.0504 29.3988C10.9146 29.1482 9.86242 28.9143 8.89371 28.6971C7.19013 28.3128 5.75377 27.8617 4.58465 27.3438C3.38212 26.8258 2.40506 26.0573 1.65348 25.0381C0.901898 24.0022 0.526107 22.6405 0.526107 20.9531C0.526107 19.1653 1.07727 17.7118 2.17959 16.5923C3.28191 15.4729 4.65981 14.6793 6.31328 14.2115C7.98347 13.7437 9.6954 13.5098 11.4491 13.5098C12.8353 13.5098 14.1297 13.6601 15.3323 13.9609C16.5348 14.2449 17.6288 14.7127 18.6142 15.3643C19.6163 15.9992 20.443 16.843 21.0944 17.8955C21.7625 18.9314 22.1967 20.1511 22.3971 21.5545H16.3845C15.9502 19.2322 14.1715 18.071 11.0482 18.071C9.89582 18.071 8.81856 18.2631 7.81645 18.6474C6.81434 19.015 6.31328 19.6749 6.31328 20.6273C6.31328 21.3123 6.53876 21.8803 6.98971 22.3314C7.44066 22.7658 8.02522 23.1167 8.7434 23.384C9.47828 23.6681 10.3718 23.927 11.424 24.1609C12.493 24.3948 13.612 24.6371 14.7811 24.8877C16.4179 25.2887 17.8459 25.7649 19.0651 26.3162C20.2844 26.8509 21.2781 27.6278 22.0464 28.647C22.8147 29.6661 23.1988 30.9777 23.1988 32.5816C23.1988 34.5699 22.631 36.2072 21.4952 37.4937C20.3595 38.7635 18.9065 39.6824 17.1361 40.2505C15.3824 40.8353 13.5201 41.1276 11.5493 41.1276C9.36137 41.1276 7.3989 40.7768 5.66191 40.075C3.92493 39.4067 2.56373 38.3792 1.57832 36.9925C0.559511 35.6224 0.0334036 33.9517 0 31.9802Z" fill="white"/>
<rect x="207.547" width="20.4486" height="4.23728" fill="#1E69FE"/>
<rect x="227.996" y="0.291016" width="18.9216" height="4.23578" transform="rotate(90 227.996 0.291016)" fill="#1E69FE"/>
</svg>
