<svg width="220" height="49" viewBox="0 0 220 49" fill="none" xmlns="http://www.w3.org/2000/svg">
<path d="M184.803 39.5932V13.8781H190L190.097 17.7587C190.887 16.3178 191.958 15.2044 193.312 14.4184C194.682 13.6325 196.197 13.2395 197.857 13.2395C200.629 13.2395 202.804 13.9845 204.384 15.4745C205.979 16.9482 206.777 19.1177 206.777 21.9831V39.5932H201.289V23.4322C201.241 21.4182 200.806 19.961 199.984 19.0604C199.162 18.1598 197.913 17.7096 196.237 17.7096C194.48 17.7096 193.046 18.3481 191.934 19.6253C190.838 20.8861 190.29 22.4743 190.29 24.3901V39.5932H184.803Z" fill="#1E69FE"/>
<path d="M176.149 30.9233V26.7725C175.408 27.2637 173.917 27.6485 171.677 27.9268C169.453 28.2216 167.777 28.6309 166.649 29.1549C165.521 29.6788 164.957 30.7759 164.957 32.446C164.957 33.6249 165.481 34.4846 166.528 35.0249C167.576 35.5489 168.72 35.8108 169.961 35.8108C171.443 35.8108 172.846 35.4015 174.167 34.5828C175.489 33.7641 176.149 32.5443 176.149 30.9233ZM181.709 20.6323V33.9442C181.709 35.1395 182.265 35.7617 183.377 35.8108C183.587 35.8108 183.917 35.7781 184.369 35.7126V39.5932C183.305 40.0353 182.153 40.2563 180.912 40.2563C178.414 40.2563 177.012 39.2084 176.705 37.1126C175.755 38.095 174.506 38.8564 172.958 39.3967C171.411 39.9698 169.824 40.2563 168.196 40.2563C166.617 40.2563 165.158 39.9862 163.821 39.4458C162.499 38.8891 161.435 38.0459 160.63 36.9161C159.824 35.7863 159.421 34.3945 159.421 32.7407C159.421 30.7595 159.864 29.2204 160.75 28.1233C161.637 27.0263 162.733 26.2567 164.038 25.8146C165.36 25.3725 167.044 25.0041 169.091 24.7094C170.573 24.4965 171.879 24.3082 173.007 24.1445C174.135 23.9807 175.005 23.6942 175.618 23.2849C176.246 22.8755 176.56 22.1878 176.56 21.2218C176.56 18.8803 174.828 17.7096 171.363 17.7096C167.946 17.7096 166.093 19.085 165.803 21.8358H160.219C160.444 18.7247 161.621 16.5143 163.748 15.2044C165.892 13.8945 168.543 13.2395 171.701 13.2395C174.457 13.2395 176.81 13.8371 178.76 15.0324C180.726 16.2441 181.709 18.1107 181.709 20.6323Z" fill="#1E69FE"/>
<path d="M152.188 39.5948V3.98169H157.699V39.5948H152.188Z" fill="#1E69FE"/>
<path d="M144.596 26.7725C144.596 25.1842 144.33 23.6942 143.798 22.3024C143.283 20.9106 142.509 19.7972 141.478 18.9622C140.446 18.1271 139.205 17.7096 137.755 17.7096C136.224 17.7096 134.918 18.1271 133.839 18.9622C132.727 19.8136 131.889 20.9352 131.325 22.327C130.777 23.7188 130.503 25.2006 130.503 26.7725C130.503 28.328 130.785 29.8016 131.349 31.1934C131.913 32.5852 132.743 33.7068 133.839 34.5582C134.935 35.3933 136.24 35.8108 137.755 35.8108C139.334 35.8108 140.64 35.3851 141.671 34.5337C142.702 33.6822 143.444 32.577 143.895 31.218C144.362 29.8589 144.596 28.3771 144.596 26.7725ZM125.354 49V13.8781H130.575L130.623 17.6604C131.413 16.0231 132.469 14.8851 133.79 14.2465C135.144 13.5752 136.683 13.2395 138.408 13.2395C140.97 13.2395 143.13 13.8371 144.886 15.0324C146.659 16.2277 147.98 17.8651 148.851 19.9446C149.737 22.0077 150.18 24.3164 150.18 26.8707C150.18 29.2777 149.785 31.5045 148.996 33.5513C148.19 35.5816 146.973 37.219 145.345 38.4634C143.718 39.6914 141.735 40.3055 139.399 40.3055C137.674 40.3055 136.055 39.9616 134.54 39.2739C133.814 38.9628 133.218 38.6353 132.751 38.2915C132.3 37.9313 131.937 37.5956 131.663 37.2845C131.389 36.9734 131.188 36.736 131.059 36.5722C130.946 36.4085 130.881 36.3266 130.865 36.3266V49H125.354Z" fill="#1E69FE"/>
<path d="M98.2529 18.0543V14.0699L100.382 13.879H102.435V6.14233H107.947V13.879H112.975V18.0543H107.923V31.8329C107.923 33.1919 108.084 34.1334 108.406 34.6574C108.728 35.165 109.462 35.4188 110.606 35.4188C111.605 35.4188 112.395 35.3533 112.975 35.2223V39.5941C112.572 39.5941 111.976 39.6268 111.186 39.6923C110.396 39.7578 109.792 39.7906 109.373 39.7906C107.939 39.7906 106.77 39.6596 105.868 39.3976C104.981 39.1193 104.296 38.7181 103.813 38.1941C103.313 37.6538 102.967 36.9907 102.773 36.2047C102.58 35.4188 102.467 34.4363 102.435 33.2574L102.411 18.0543H98.2529Z" fill="#1E69FE"/>
<path d="M86.7188 39.5938V13.8787H91.8437L91.8678 18.8645C92.7059 15.1804 95.8646 13.8787 101.344 13.8787V18.079C100.297 17.948 100.214 18.079 99.7462 18.079C98.4408 18.079 96.5979 18.9136 95.5665 19.6013C94.535 20.289 93.7212 21.3042 93.1249 22.6469C92.5286 23.9731 92.2304 25.5286 92.2304 27.3134L92.2063 39.5938H86.7188Z" fill="#1E69FE"/>
<path d="M78.1865 30.9233V26.7725C77.4451 27.2637 75.9544 27.6485 73.7143 27.9268C71.4902 28.2216 69.8142 28.6309 68.6861 29.1549C67.5579 29.6788 66.9939 30.7759 66.9939 32.446C66.9939 33.6249 67.5176 34.4846 68.5652 35.0249C69.6127 35.5489 70.757 35.8108 71.9979 35.8108C73.4806 35.8108 74.8827 35.4015 76.2042 34.5828C77.5257 33.7641 78.1865 32.5443 78.1865 30.9233ZM83.7465 20.6323V33.9442C83.7465 35.1395 84.3025 35.7617 85.4145 35.8108C85.624 35.8108 85.9544 35.7781 86.4056 35.7126V39.5932C85.342 40.0353 84.1897 40.2563 82.9488 40.2563C80.4508 40.2563 79.0487 39.2084 78.7425 37.1126C77.7916 38.095 76.5426 38.8564 74.9955 39.3967C73.4483 39.9698 71.8609 40.2563 70.2332 40.2563C68.6538 40.2563 67.1953 39.9862 65.8577 39.4458C64.5362 38.8891 63.4725 38.0459 62.6667 36.9161C61.8609 35.7863 61.458 34.3945 61.458 32.7407C61.458 30.7595 61.9012 29.2204 62.7876 28.1233C63.674 27.0263 64.7699 26.2567 66.0753 25.8146C67.3968 25.3725 69.0809 25.0041 71.1276 24.7094C72.6103 24.4965 73.9157 24.3082 75.0438 24.1445C76.172 23.9807 77.0422 23.6942 77.6546 23.2849C78.2832 22.8755 78.5974 22.1878 78.5974 21.2218C78.5974 18.8803 76.8649 17.7096 73.4 17.7096C69.9834 17.7096 68.13 19.085 67.84 21.8358H62.2558C62.4814 18.7247 63.6578 16.5143 65.7852 15.2044C67.9286 13.8945 70.5797 13.2395 73.7384 13.2395C76.4943 13.2395 78.8472 13.8371 80.7973 15.0324C82.7634 16.2441 83.7465 18.1107 83.7465 20.6323Z" fill="#1E69FE"/>
<path d="M23.8818 39.5932V13.8781H29.0793L29.176 17.5131C29.9979 16.2195 31.1743 15.188 32.7054 14.4184C34.2364 13.6325 35.7997 13.2395 37.3951 13.2395C38.8778 13.2395 40.1993 13.5915 41.3597 14.2956C42.5362 14.9997 43.4064 16.0722 43.9705 17.5131C45.84 14.664 48.4346 13.2395 51.7545 13.2395C54.5265 13.2395 56.6377 13.9272 58.0881 15.3026C59.5386 16.6616 60.2638 18.8721 60.2638 21.934V39.5932H54.6554V24.4883C54.6554 22.9164 54.5587 21.6638 54.3653 20.7305C54.1881 19.7809 53.769 19.044 53.1083 18.5201C52.4636 17.9797 51.4644 17.7096 50.1107 17.7096C46.5329 17.7096 44.7441 19.9692 44.7441 24.4883V39.5932H39.2082V23.0392C39.2082 21.2054 38.8778 19.8627 38.2171 19.0113C37.5563 18.1435 36.404 17.7096 34.7602 17.7096C33.2936 17.7096 32.0204 18.299 30.9407 19.4779C29.877 20.6569 29.3452 22.2615 29.3452 24.2918V39.5932H23.8818Z" fill="#1E69FE"/>
<path d="M0 31.341H5.65673C5.76955 32.8802 6.32555 34.01 7.32475 34.7304C8.34006 35.4509 9.64546 35.8111 11.2409 35.8111C15.0121 35.8111 16.8977 34.6567 16.8977 32.348C16.8332 31.6603 16.5592 31.0954 16.0758 30.6533C15.6084 30.1949 15.0282 29.8346 14.3352 29.5727C13.6422 29.3107 12.7397 29.0569 11.6277 28.8113C10.5318 28.5657 9.51653 28.3364 8.5818 28.1236C6.93796 27.747 5.55198 27.3049 4.42386 26.7973C3.2635 26.2897 2.32071 25.5365 1.59549 24.5377C0.870267 23.5225 0.507656 22.1881 0.507656 20.5343C0.507656 18.7823 1.03949 17.3578 2.10314 16.2607C3.1668 15.1637 4.49638 14.3859 6.09187 13.9274C7.70347 13.469 9.35537 13.2397 11.0476 13.2397C12.3852 13.2397 13.6342 13.3871 14.7945 13.6818C15.9549 13.9602 17.0105 14.4187 17.9613 15.0572C18.9283 15.6794 19.726 16.5063 20.3546 17.5379C20.9992 18.5531 21.4182 19.7483 21.6116 21.1238H15.8098C15.3908 18.8478 13.6745 17.7098 10.6608 17.7098C9.54876 17.7098 8.50927 17.8981 7.54231 18.2747C6.57535 18.6349 6.09187 19.2817 6.09187 20.215C6.09187 20.8863 6.30943 21.443 6.74457 21.8851C7.1797 22.3109 7.74376 22.6547 8.43675 22.9167C9.14586 23.195 10.0081 23.4488 11.0234 23.6781C12.0548 23.9073 13.1346 24.1447 14.2627 24.3903C15.8421 24.7833 17.22 25.25 18.3965 25.7903C19.5729 26.3143 20.5318 27.0756 21.2732 28.0744C22.0145 29.0733 22.3852 30.3586 22.3852 31.9305C22.3852 33.879 21.8372 35.4836 20.7414 36.7444C19.6455 37.9888 18.2434 38.8894 16.5351 39.4461C14.8429 40.0192 13.0459 40.3057 11.1442 40.3057C9.03305 40.3057 7.13941 39.9619 5.46334 39.2742C3.78727 38.6192 2.47381 37.6122 1.52297 36.2532C0.539888 34.9105 0.0322321 33.2731 0 31.341Z" fill="#1E69FE"/>
<rect x="200.268" width="19.7314" height="4.1526" fill="#1E69FE"/>
<rect x="220" y="0.285645" width="18.5435" height="4.08722" transform="rotate(90 220 0.285645)" fill="#1E69FE"/>
</svg>
