<svg width="61" height="61" viewBox="0 0 61 61" fill="none" xmlns="http://www.w3.org/2000/svg">
<path d="M15.2417 0.00439453C11.1971 0.00439453 7.31825 1.61109 4.45832 4.47102C1.59839 7.33095 -0.00830078 11.2098 -0.00830078 15.2544L-0.00830078 45.7544C-0.00830078 49.7989 1.59839 53.6778 4.45832 56.5378C7.31825 59.3977 11.1971 61.0044 15.2417 61.0044H45.7417C49.7863 61.0044 53.6651 59.3977 56.5251 56.5378C59.385 53.6778 60.9917 49.7989 60.9917 45.7544V0.00439453H15.2417Z" fill="#B1EC52"/>
<path d="M50.3994 22.8737H43.0779L36.1033 30.5049V15.2549H30.4543V18.9713C30.2726 18.7318 30.0743 18.4965 29.8596 18.2652C28.7036 17.1296 27.3227 16.2486 25.8057 15.679C24.2887 15.1093 22.6692 14.8635 21.0515 14.9575C19.4986 14.886 17.9503 15.1767 16.5291 15.8067C15.1079 16.4367 13.8528 17.3886 12.8629 18.5873C12.0618 19.5678 11.4812 20.7093 11.1606 21.9342C10.8399 23.159 10.7867 24.4386 11.0046 25.6858C12.3178 31.5579 17.7686 32.4994 21.7701 33.0197C24.9291 33.4285 27.9642 34.0107 27.8775 36.8229C27.7908 39.635 24.4955 40.4403 22.2904 40.4403C16.6537 40.4403 16.4679 36.2778 16.4679 36.2778H10.4471C10.5512 38.5628 11.4243 40.7456 12.9248 42.472C15.0308 44.8381 18.1898 46.0274 22.3151 46.0274C25.2821 46.0945 28.1716 45.077 30.4419 43.1657V45.6434H36.0909V38.5201L38.0978 36.3397L43.8088 45.7177H50.387L42.1116 31.9791L50.3994 22.8737ZM16.6661 24.3603C16.1705 22.1799 18.3385 20.2473 21.163 20.2473C23.6407 20.2473 26.2298 20.8172 27.1961 24.3603H30.4543V29.7368C26.4033 26.4167 17.6076 28.498 16.6661 24.3603Z" fill="#4D5759"/>
</svg>
