<svg width="229" height="50" viewBox="0 0 229 50" fill="none" xmlns="http://www.w3.org/2000/svg">
<path d="M191.59 40.4009V14.1614H196.978L197.078 18.1211C197.897 16.6508 199.008 15.5147 200.412 14.7127C201.832 13.9108 203.402 13.5098 205.123 13.5098C207.997 13.5098 210.252 14.27 211.89 15.7904C213.544 17.2941 214.371 19.5078 214.371 22.4317V40.4009H208.682V23.9103C208.632 21.8553 208.181 20.3683 207.329 19.4494C206.476 18.5304 205.182 18.071 203.444 18.071C201.623 18.071 200.136 18.7226 198.983 20.0258C197.847 21.3123 197.279 22.9329 197.279 24.8877V40.4009H191.59Z" fill="white"/>
<path d="M182.616 31.5541V27.3187C181.848 27.8199 180.302 28.2126 177.98 28.4966C175.674 28.7973 173.936 29.215 172.767 29.7497C171.597 30.2843 171.013 31.4037 171.013 33.1079C171.013 34.3109 171.556 35.188 172.642 35.7394C173.728 36.274 174.914 36.5414 176.2 36.5414C177.737 36.5414 179.191 36.1237 180.561 35.2883C181.931 34.4529 182.616 33.2082 182.616 31.5541ZM188.38 21.0533V34.6367C188.38 35.8563 188.957 36.4912 190.109 36.5414C190.327 36.5414 190.669 36.5079 191.137 36.4411V40.4009C190.034 40.852 188.84 41.0775 187.553 41.0775C184.963 41.0775 183.51 40.0082 183.192 37.8696C182.207 38.8721 180.912 39.649 179.308 40.2004C177.704 40.7851 176.058 41.0775 174.371 41.0775C172.733 41.0775 171.221 40.8018 169.835 40.2505C168.465 39.6824 167.362 38.822 166.527 37.6691C165.691 36.5163 165.273 35.0961 165.273 33.4087C165.273 31.387 165.733 29.8165 166.652 28.6971C167.571 27.5777 168.707 26.7924 170.06 26.3413C171.43 25.8902 173.176 25.5143 175.298 25.2135C176.835 24.9963 178.189 24.8042 179.358 24.6371C180.528 24.47 181.43 24.1776 182.065 23.76C182.716 23.3423 183.042 22.6405 183.042 21.6548C183.042 19.2656 181.246 18.071 177.654 18.071C174.112 18.071 172.19 19.4744 171.89 22.2813H166.1C166.334 19.1069 167.554 16.8513 169.759 15.5147C171.982 14.1781 174.73 13.5098 178.005 13.5098C180.862 13.5098 183.301 14.1196 185.323 15.3393C187.361 16.5756 188.38 18.4803 188.38 21.0533Z" fill="white"/>
<path d="M157.777 40.4018V4.0625H163.491V40.4018H157.777Z" fill="white"/>
<path d="M149.906 27.3187C149.906 25.698 149.63 24.1776 149.079 22.7575C148.544 21.3373 147.742 20.2012 146.673 19.3491C145.604 18.497 144.317 18.071 142.814 18.071C141.226 18.071 139.873 18.497 138.754 19.3491C137.601 20.2179 136.732 21.3624 136.147 22.7826C135.579 24.2027 135.295 25.7148 135.295 27.3187C135.295 28.9059 135.588 30.4096 136.172 31.8298C136.757 33.2499 137.618 34.3944 138.754 35.2632C139.89 36.1153 141.243 36.5414 142.814 36.5414C144.451 36.5414 145.804 36.107 146.874 35.2382C147.943 34.3694 148.711 33.2416 149.179 31.8548C149.664 30.4681 149.906 28.9561 149.906 27.3187ZM129.957 49.9994V14.1614H135.37L135.42 18.0209C136.239 16.3501 137.333 15.1889 138.704 14.5373C140.107 13.8523 141.703 13.5098 143.49 13.5098C146.147 13.5098 148.386 14.1196 150.207 15.3393C152.045 16.5589 153.415 18.2297 154.317 20.3516C155.236 22.4568 155.695 24.8125 155.695 27.4189C155.695 29.875 155.286 32.1472 154.467 34.2357C153.632 36.3075 152.37 37.9782 150.683 39.248C148.995 40.5011 146.94 41.1276 144.518 41.1276C142.73 41.1276 141.051 40.7768 139.48 40.075C138.729 39.7576 138.11 39.4234 137.626 39.0726C137.158 38.705 136.782 38.3625 136.498 38.0451C136.214 37.7276 136.005 37.4853 135.872 37.3183C135.755 37.1512 135.688 37.0677 135.671 37.0677V49.9994H129.957Z" fill="white"/>
<path d="M101.859 18.4224V14.3568L104.066 14.162H106.195V6.26758H111.909V14.162H117.122V18.4224H111.884V32.482C111.884 33.8687 112.051 34.8294 112.385 35.3641C112.719 35.882 113.48 36.141 114.666 36.141C115.702 36.141 116.52 36.0742 117.122 35.9405V40.4015C116.704 40.4015 116.086 40.4349 115.267 40.5017C114.449 40.5685 113.822 40.602 113.388 40.602C111.901 40.602 110.689 40.4683 109.754 40.201C108.835 39.9169 108.125 39.5076 107.624 38.9729C107.106 38.4216 106.746 37.7449 106.546 36.943C106.345 36.141 106.228 35.1385 106.195 33.9356L106.17 18.4224H101.859Z" fill="white"/>
<path d="M89.9023 40.4016V14.1621H95.2154L95.2405 19.2496C96.1093 15.4904 99.384 14.1621 105.065 14.1621V18.4481C103.979 18.3144 103.893 18.4481 103.408 18.4481C102.055 18.4481 100.144 19.2997 99.0749 20.0015C98.0056 20.7032 97.1618 21.7391 96.5437 23.1091C95.9255 24.4624 95.6164 26.0497 95.6164 27.8708L95.5913 40.4016H89.9023Z" fill="white"/>
<path d="M81.0536 31.5541V27.3187C80.285 27.8199 78.7395 28.2126 76.4172 28.4966C74.1115 28.7973 72.3739 29.215 71.2043 29.7497C70.0348 30.2843 69.45 31.4037 69.45 33.1079C69.45 34.3109 69.993 35.188 71.079 35.7394C72.165 36.274 73.3513 36.5414 74.6378 36.5414C76.1749 36.5414 77.6285 36.1237 78.9985 35.2883C80.3685 34.4529 81.0536 33.2082 81.0536 31.5541ZM86.8177 21.0533V34.6367C86.8177 35.8563 87.3941 36.4912 88.547 36.5414C88.7642 36.5414 89.1067 36.5079 89.5745 36.4411V40.4009C88.4718 40.852 87.2772 41.0775 85.9907 41.0775C83.401 41.0775 81.9474 40.0082 81.63 37.8696C80.6442 38.8721 79.3494 39.649 77.7454 40.2004C76.1415 40.7851 74.4958 41.0775 72.8083 41.0775C71.1709 41.0775 69.6589 40.8018 68.2721 40.2505C66.9021 39.6824 65.7994 38.822 64.964 37.6691C64.1286 36.5163 63.7109 35.0961 63.7109 33.4087C63.7109 31.387 64.1704 29.8165 65.0893 28.6971C66.0082 27.5777 67.1444 26.7924 68.4977 26.3413C69.8677 25.8902 71.6137 25.5143 73.7356 25.2135C75.2727 24.9963 76.626 24.8042 77.7955 24.6371C78.9651 24.47 79.8673 24.1776 80.5022 23.76C81.1538 23.3423 81.4796 22.6405 81.4796 21.6548C81.4796 19.2656 79.6835 18.071 76.0914 18.071C72.5493 18.071 70.6279 19.4744 70.3272 22.2813H64.538C64.7719 19.1069 65.9915 16.8513 68.197 15.5147C70.4191 14.1781 73.1675 13.5098 76.4422 13.5098C79.2992 13.5098 81.7386 14.1196 83.7602 15.3393C85.7985 16.5756 86.8177 18.4803 86.8177 21.0533Z" fill="white"/>
<path d="M24.7617 40.4009V14.1614H30.15L30.2502 17.8705C31.1023 16.5506 32.322 15.498 33.9092 14.7127C35.4964 13.9108 37.1171 13.5098 38.7711 13.5098C40.3083 13.5098 41.6783 13.869 42.8813 14.5874C44.1009 15.3058 45.0031 16.4002 45.5879 17.8705C47.526 14.9633 50.2159 13.5098 53.6577 13.5098C56.5315 13.5098 58.7202 14.2115 60.2239 15.6149C61.7276 17.0017 62.4794 19.2572 62.4794 22.3816V40.4009H56.6651V24.988C56.6651 23.384 56.5649 22.1059 56.3644 21.1536C56.1806 20.1845 55.7462 19.4327 55.0612 18.898C54.3929 18.3467 53.357 18.071 51.9535 18.071C48.2444 18.071 46.3899 20.3766 46.3899 24.988V40.4009H40.6508V23.5093C40.6508 21.6381 40.3083 20.268 39.6232 19.3992C38.9382 18.5137 37.7436 18.071 36.0394 18.071C34.519 18.071 33.1991 18.6725 32.0797 19.8754C30.977 21.0784 30.4256 22.7157 30.4256 24.7875V40.4009H24.7617Z" fill="white"/>
<path d="M0 31.9802H5.86441C5.98137 33.5507 6.55778 34.7035 7.59366 35.4387C8.64625 36.1738 9.99957 36.5414 11.6536 36.5414C15.5632 36.5414 17.5181 35.3635 17.5181 33.0077C17.4512 32.306 17.1672 31.7295 16.666 31.2784C16.1814 30.8106 15.58 30.443 14.8615 30.1757C14.1431 29.9084 13.2075 29.6494 12.0546 29.3988C10.9185 29.1482 9.86591 28.9143 8.89686 28.6971C7.19268 28.3128 5.75581 27.8617 4.58627 27.3438C3.38331 26.8258 2.40591 26.0573 1.65407 25.0381C0.902217 24.0022 0.526293 22.6405 0.526293 20.9531C0.526293 19.1653 1.07765 17.7118 2.18036 16.5923C3.28307 15.4729 4.66146 14.6793 6.31552 14.2115C7.98629 13.7437 9.69884 13.5098 11.4531 13.5098C12.8399 13.5098 14.1347 13.6601 15.3377 13.9609C16.5407 14.2449 17.635 14.7127 18.6208 15.3643C19.6232 15.9992 20.4503 16.843 21.1019 17.8955C21.7702 18.9314 22.2046 20.1511 22.4051 21.5545H16.3903C15.9559 19.2322 14.1765 18.071 11.0522 18.071C9.89933 18.071 8.82168 18.2631 7.81922 18.6474C6.81675 19.015 6.31552 19.6749 6.31552 20.6273C6.31552 21.3123 6.54108 21.8803 6.99218 22.3314C7.44329 22.7658 8.02806 23.1167 8.7465 23.384C9.48164 23.6681 10.3755 23.927 11.4281 24.1609C12.4974 24.3948 13.6168 24.6371 14.7863 24.8877C16.4237 25.2887 17.8522 25.7649 19.0719 26.3162C20.2915 26.8509 21.2856 27.6278 22.0542 28.647C22.8228 29.6661 23.207 30.9777 23.207 32.5816C23.207 34.5699 22.639 36.2072 21.5028 37.4937C20.3667 38.7635 18.9131 39.6824 17.1421 40.2505C15.3878 40.8353 13.5249 41.1276 11.5534 41.1276C9.36468 41.1276 7.40152 40.7768 5.66392 40.075C3.92632 39.4067 2.56464 38.3792 1.57888 36.9925C0.559709 35.6224 0.0334155 33.9517 0 31.9802Z" fill="white"/>
<rect x="207.625" width="20.4558" height="4.23728" fill="white"/>
<rect x="228.082" y="0.291016" width="18.9216" height="4.23728" transform="rotate(90 228.082 0.291016)" fill="white"/>
</svg>
