<svg width="154" height="42" viewBox="0 0 154 42" fill="none" xmlns="http://www.w3.org/2000/svg">
<g clip-path="url(#clip0_1298_4054)">
<path d="M62.3225 3.53274L57.6022 1.17257C57.4652 1.02757 57.2719 0.955078 57.0786 0.955078H40.05C39.768 0.955078 39.5264 0.955078 39.1236 1.36589L36.8359 3.83078C36.6748 4.04022 36.7232 4.34631 36.8359 4.54769C36.9648 4.77324 37.2387 4.88601 37.4965 4.88601H57.0383C57.4974 4.88601 57.868 5.28071 57.868 5.73986V16.6304C57.868 17.0896 57.4974 17.4601 57.0383 17.4601H38.2859C38.0281 17.4601 37.7864 17.5971 37.6576 17.8146C37.5206 18.032 37.5126 18.306 37.6253 18.5396L39.1236 20.9964C39.2525 21.2461 39.5103 21.4072 39.7841 21.4072H57.0786C57.2719 21.4072 57.4652 21.3267 57.6022 21.1897L62.3225 18.749C62.4596 18.604 62.5805 18.459 62.5805 18.2657V4.10465C62.5805 3.90328 62.4596 3.67773 62.3225 3.53274Z" fill="#1D2848"/>
<path d="M117.613 15.8926C117.613 16.7625 116.912 17.4633 116.042 17.4633H103.46C102.59 17.4633 101.889 16.7625 101.889 15.8926V6.45994C101.889 5.58998 102.59 4.88918 103.46 4.88918H116.042C116.912 4.88918 117.613 5.58998 117.613 6.45994V15.8926ZM122.116 3.52785L118.096 1.16769C117.959 1.02269 117.814 0.950195 117.613 0.950195H101.889C101.696 0.950195 101.462 1.03075 101.317 1.16769L97.3862 3.52785C97.2491 3.67285 97.1689 3.89839 97.1689 4.09977V18.2527C97.1689 18.4461 97.2491 18.6797 97.3862 18.8246L101.317 21.1848C101.454 21.3218 101.688 21.4023 101.889 21.4023H117.613C117.814 21.4023 117.959 21.3218 118.096 21.1848L122.116 18.8246C122.253 18.6877 122.333 18.4541 122.333 18.2527V4.10783C122.333 3.90645 122.253 3.6809 122.116 3.53591V3.52785Z" fill="#1D2848"/>
<path d="M87.7308 15.8926C87.7308 16.7625 87.03 17.4633 86.1604 17.4633H73.5778C72.7082 17.4633 72.0074 16.7625 72.0074 15.8926V6.45994C72.0074 5.58998 72.7082 4.88918 73.5778 4.88918H86.1604C87.03 4.88918 87.7308 5.58998 87.7308 6.45994V15.8926ZM92.2339 3.52785L88.303 1.16769C88.1659 1.02269 87.9726 0.950195 87.7308 0.950195H74.3672C74.2385 0.950195 74.0291 1.01464 73.892 1.12741L72.1845 2.95594C72.1845 2.95594 72.1121 3.0526 71.9828 3.0526C71.8703 3.0526 71.8057 2.9801 71.8057 2.9801L69.6469 1.17574C69.5099 1.03075 69.3166 0.95825 69.1155 0.95825H67.8102C67.4966 0.95825 67.2871 1.22407 67.2871 1.48184V27.1617C67.2871 27.4437 67.4966 27.6854 67.8102 27.6854H71.4753C71.7572 27.6854 71.999 27.492 71.999 27.1617V20.0813C71.999 20.0813 71.999 19.9202 72.16 19.8396C72.2731 19.7912 72.3856 19.8315 72.4503 19.9041C72.5065 19.9685 73.828 21.0801 73.828 21.0801C73.9644 21.217 74.1577 21.3862 74.3594 21.3862H87.7231C87.9164 21.3862 88.1498 21.217 88.2946 21.0801L92.2255 18.8649C92.3787 18.7038 92.4433 18.5427 92.4433 18.2366V4.09977C92.4433 3.90645 92.3625 3.67285 92.2255 3.53591L92.2339 3.52785Z" fill="#1D2848"/>
<path d="M56.2956 9.86719H42.1426V12.4852H56.2956V9.86719Z" fill="#1D2848"/>
<path d="M146.087 9.86719H133.504V13.0007H146.087V9.86719Z" fill="#1D2848"/>
<path d="M23.5622 12.4824H12.6475V15.6159H23.5622V12.4824Z" fill="#1D2848"/>
<path d="M25.2436 2.98499C24.0353 0.955078 24.1158 0.955078 19.178 0.955078C18.8075 0.955078 18.5658 1.39811 18.7672 1.74449C19.025 2.17947 29.0376 19.0067 29.0376 19.0067C30.4472 21.3911 30.3667 21.3911 35.3125 21.3911C35.6831 21.3911 35.9247 20.94 35.7234 20.6016C35.4656 20.1667 25.2436 2.98499 25.2436 2.98499Z" fill="#1D2848"/>
<path d="M10.953 2.98498C12.1613 0.955078 12.0808 0.955078 17.0186 0.955078C17.3892 0.955078 17.6308 1.39811 17.4294 1.74449C17.1717 2.17947 7.15905 19.0067 7.15905 19.0067C5.74941 21.3911 5.82996 21.3911 0.88408 21.3911C0.513541 21.3911 0.271886 20.94 0.473265 20.6016C0.731031 20.1667 10.953 2.98498 10.953 2.98498Z" fill="#1D2848"/>
<path d="M147.658 5.14417C147.658 3.69424 147.658 3.51702 148.681 2.89677C149.293 2.52623 149.938 2.14764 151.806 1.01186C152.08 0.842701 152.548 1.08436 152.548 1.47101V20.8679C152.548 21.1498 152.338 21.3915 152.024 21.3915H148.182C147.892 21.3915 147.658 21.1981 147.658 20.8679V5.14417Z" fill="#1D2848"/>
<path d="M131.938 5.14417C131.938 3.69424 131.938 3.51702 130.907 2.89677C130.295 2.52623 129.651 2.14764 127.782 1.01186C127.508 0.842701 127.041 1.08436 127.041 1.47101V20.8679C127.041 21.1498 127.25 21.3915 127.565 21.3915H131.407C131.697 21.3915 131.931 21.1981 131.931 20.8679V5.14417" fill="#1D2848"/>
<path d="M136.368 37.9117C137.383 37.9117 137.891 37.4767 137.891 36.6147V35.2454C137.858 34.4318 137.351 34.021 136.368 34.021C135.723 34.021 135.281 34.1499 135.031 34.3996C134.789 34.6493 134.676 35.181 134.676 35.9784C134.676 36.7759 134.789 37.2995 135.031 37.5492C135.264 37.7908 135.716 37.9117 136.368 37.9117ZM137.891 38.9186V37.823H137.721C137.423 38.6688 136.755 39.0958 135.716 39.0958C134.854 39.0958 134.225 38.8702 133.814 38.4272C133.404 37.9761 133.202 37.1625 133.202 35.9865C133.202 34.8104 133.404 33.9888 133.814 33.5296C134.225 33.0705 134.854 32.8449 135.716 32.8449C136.755 32.8449 137.423 33.2718 137.721 34.1177H137.891V33.0221H139.372V38.9266H137.891V38.9186ZM130.463 36.7437H131.954C131.865 37.5975 131.575 38.2016 131.076 38.5641C130.584 38.9186 129.883 39.0958 128.973 39.0958C127.91 39.0958 127.121 38.8622 126.613 38.3949C126.106 37.9358 125.848 37.1384 125.848 36.0026C125.848 34.8668 126.106 34.021 126.613 33.5458C127.129 33.0705 127.918 32.8369 128.973 32.8369C129.876 32.8369 130.576 33.0141 131.059 33.3524C131.551 33.6988 131.833 34.2949 131.921 35.1246H130.431C130.319 34.3835 129.827 34.0129 128.965 34.0129C128.409 34.0129 127.99 34.158 127.725 34.4398C127.451 34.7299 127.322 35.2454 127.322 36.0026C127.322 36.7598 127.451 37.2269 127.725 37.5008C127.99 37.7747 128.402 37.9117 128.965 37.9117C129.4 37.9117 129.739 37.823 129.988 37.6539C130.246 37.4767 130.399 37.1706 130.447 36.7437H130.463ZM124.358 38.9186H122.907V35.2615L119.75 38.9186H118.743V33.0141H120.193V36.7356L123.31 33.0141H124.35V38.9186H124.358ZM114.869 33.0141L117.688 38.9186H116.045L114.345 34.8829L112.573 38.9186H110.898L113.83 33.0141H114.869ZM107.119 32.8369C108.191 32.8369 108.98 33.0705 109.496 33.5458C110.02 34.021 110.277 34.8345 110.277 36.0026C110.277 37.1706 110.02 37.9358 109.496 38.3949C108.988 38.8622 108.191 39.0958 107.119 39.0958C106.048 39.0958 105.267 38.8622 104.743 38.3949C104.236 37.9358 103.978 37.1384 103.978 36.0026C103.978 34.8668 104.236 34.021 104.743 33.5458C105.267 33.0705 106.056 32.8369 107.119 32.8369ZM105.871 37.5008C106.137 37.7747 106.556 37.9117 107.119 37.9117C107.684 37.9117 108.102 37.7747 108.368 37.5008C108.642 37.2269 108.779 36.7276 108.779 36.0026C108.779 35.2776 108.642 34.7379 108.368 34.456C108.102 34.166 107.684 34.021 107.119 34.021C106.556 34.021 106.137 34.166 105.871 34.4479C105.605 34.7379 105.468 35.2534 105.468 36.0106C105.468 36.7678 105.605 37.235 105.871 37.5089V37.5008ZM96.7446 38.9186V33.0141H102.496V38.9186H101.006V34.1982H98.2264V38.9186H96.7362H96.7446ZM92.0967 37.9117C93.1118 37.9117 93.6193 37.4767 93.6193 36.6147V35.2454C93.587 34.4318 93.0794 34.021 92.0967 34.021C91.4521 34.021 91.0093 34.1499 90.7597 34.3996C90.5257 34.6493 90.4048 35.181 90.4048 35.9784C90.4048 36.7759 90.5257 37.2995 90.7597 37.5492C90.9931 37.7908 91.4444 37.9117 92.0967 37.9117ZM93.6193 38.9186V37.823H93.4583C93.1602 38.6688 92.4911 39.0958 91.4521 39.0958C90.5981 39.0958 89.9619 38.8702 89.5514 38.4272C89.1402 37.9761 88.9391 37.1625 88.9391 35.9865C88.9391 34.8104 89.1402 33.9888 89.5514 33.5296C89.9619 33.0705 90.5981 32.8449 91.4521 32.8449C92.4911 32.8449 93.1602 33.2718 93.4583 34.1177H93.6193V33.0221H95.1095V38.9266H93.6193V38.9186ZM83.4133 38.9186V33.0141H87.9803V34.1902H84.8951V38.9105H83.4049L83.4133 38.9186ZM77.3237 35.5193V35.5676H80.4406C80.4406 35.0037 80.3119 34.601 80.054 34.3754C79.8044 34.1419 79.4339 34.021 78.9426 34.021C78.4512 34.021 78.0646 34.1338 77.7827 34.3513C77.5086 34.5607 77.356 34.9554 77.3237 35.5193ZM81.9392 35.5435V36.3006H77.3237C77.3314 36.9128 77.4763 37.3236 77.7504 37.5653C78.0245 37.7989 78.435 37.9197 78.9749 37.9197C79.869 37.9197 80.3604 37.6055 80.449 36.9773H81.9392C81.8584 37.7506 81.5765 38.2983 81.0774 38.6205C80.586 38.9427 79.8852 39.1038 78.9665 39.1038C77.9036 39.1038 77.1142 38.8702 76.6067 38.403C76.0991 37.9439 75.8412 37.1464 75.8412 36.0106C75.8412 34.8748 76.0908 34.029 76.5983 33.5538C77.1058 33.0785 77.8952 32.8449 78.9587 32.8449C80.9481 32.8449 81.947 33.7471 81.947 35.5515L81.9392 35.5435ZM70.936 37.3881L69.0023 35.334V38.9186H67.5527V33.0141H68.624L70.9516 35.624L73.2797 33.0141H74.351V38.9186H72.9014V35.334L70.9438 37.3881H70.936ZM58.3454 35.5193V35.5676H61.4625C61.4625 35.0037 61.3339 34.601 61.0759 34.3754C60.8263 34.1419 60.4559 34.021 59.9645 34.021C59.4732 34.021 59.0865 34.1338 58.8046 34.3513C58.5307 34.5607 58.3777 34.9554 58.3454 35.5193ZM62.9611 35.5435V36.3006H58.3454C58.3535 36.9128 58.4985 37.3236 58.7724 37.5653C59.0463 37.7989 59.4571 37.9197 59.9968 37.9197C60.891 37.9197 61.3901 37.6055 61.4709 36.9773H62.9611C62.8804 37.7506 62.5985 38.2983 62.0993 38.6205C61.608 38.9427 60.9071 39.1038 59.9887 39.1038C58.9254 39.1038 58.136 38.8702 57.6286 38.403C57.121 37.9439 56.8633 37.1464 56.8633 36.0106C56.8633 34.8748 57.113 34.029 57.6205 33.5538C58.136 33.0785 58.9173 32.8449 59.9807 32.8449C61.97 32.8449 62.9689 33.7471 62.9689 35.5515L62.9611 35.5435ZM50.8461 33.0141V37.7345H53.5043V33.0141H54.9945V37.7345H55.9369V40.594H54.5434V38.9186H49.3639V33.0141H50.8541H50.8461ZM44.6597 34.6896L43.2178 37.8069H46.0291L44.6597 34.6896ZM45.1913 33.0141L47.479 37.7345H48.2201V40.594H46.8185V38.9186H42.4526V40.594H41.059V37.7345H41.792L44.1683 33.0141H45.1994H45.1913ZM37.0153 34.021C36.0326 34.021 35.5251 34.4318 35.4929 35.2454V36.6147C35.4929 37.4767 36.0004 37.9117 37.0153 37.9117C37.6678 37.9117 38.1108 37.7908 38.3525 37.5492C38.5861 37.3075 38.7069 36.7839 38.7069 35.9784C38.7069 35.1729 38.5861 34.6493 38.3444 34.3996C38.1108 34.1418 37.6678 34.021 37.0233 34.021H37.0153ZM37.6678 39.0958C36.6206 39.0958 35.944 38.6688 35.6459 37.823H35.4929V41.0451H34.0027V33.0141H35.4929V34.1096H35.6459C35.944 33.2638 36.6206 32.8369 37.6678 32.8369C38.5217 32.8369 39.158 33.0624 39.5688 33.5216C39.9796 33.9807 40.181 34.7943 40.181 35.9784C40.181 37.1625 39.9796 37.968 39.5688 38.4191C39.158 38.8622 38.5297 39.0877 37.6678 39.0877V39.0958ZM27.913 35.5193V35.5676H31.0303C31.0303 35.0037 30.9014 34.601 30.6437 34.3754C30.394 34.1419 30.0234 34.021 29.5321 34.021C29.0407 34.021 28.654 34.1338 28.3721 34.3513C28.0982 34.5607 27.9452 34.9554 27.913 35.5193ZM32.5286 35.5435V36.3006H27.913C27.913 36.9128 28.066 37.3236 28.3399 37.5653C28.6138 37.7989 29.0246 37.9197 29.5643 37.9197C30.4584 37.9197 30.9498 37.6055 31.0384 36.9773H32.5286C32.448 37.7506 32.1581 38.2983 31.6667 38.6205C31.1753 38.9427 30.4745 39.1038 29.5562 39.1038C28.4929 39.1038 27.7035 38.8702 27.1961 38.403C26.6805 37.9439 26.4308 37.1464 26.4308 36.0106C26.4308 34.8748 26.6805 34.029 27.188 33.5538C27.7035 33.0785 28.4849 32.8449 29.5482 32.8449C31.5378 32.8449 32.5367 33.7471 32.5367 35.5515L32.5286 35.5435ZM23.684 36.7437H25.1742C25.0856 37.5975 24.7956 38.2016 24.2962 38.5641C23.8049 38.9186 23.104 39.0958 22.1938 39.0958C21.1305 39.0958 20.3411 38.8622 19.8336 38.3949C19.3261 37.9358 19.0684 37.1384 19.0684 36.0026C19.0684 34.8668 19.3261 34.021 19.8336 33.5458C20.3411 33.0705 21.1305 32.8369 22.1938 32.8369C23.0959 32.8369 23.7968 33.0141 24.28 33.3524C24.7715 33.6988 25.0534 34.2949 25.142 35.1246H23.6518C23.5309 34.3835 23.0476 34.0129 22.1857 34.0129C21.6299 34.0129 21.2111 34.158 20.9452 34.4398C20.6794 34.7299 20.5425 35.2454 20.5425 36.0026C20.5425 36.7598 20.6794 37.2269 20.9452 37.5008C21.2111 37.7747 21.6299 37.9117 22.1857 37.9117C22.6207 37.9117 22.959 37.823 23.2168 37.6539C23.4665 37.4767 23.6196 37.1706 23.6759 36.7437H23.684Z" fill="#1D2848"/>
</g>
<defs>
<clipPath id="clip0_1298_4054">
<rect width="152.614" height="40.0987" fill="white" transform="translate(0.400391 0.950195)"/>
</clipPath>
</defs>
</svg>
