<svg width="162" height="38" viewBox="0 0 162 38" fill="none" xmlns="http://www.w3.org/2000/svg">
<g clip-path="url(#clip0_1298_4069)">
<path d="M19.6136 0.0585938L22.2003 5.71371H17.0625L19.6136 0.0585938ZM19.6136 37.9409L17.0637 32.2858H22.2014L19.6136 37.9409ZM38.5737 18.9808L32.9186 21.5674V16.4297L38.5737 18.9808ZM0.691406 18.9808L6.34652 16.4308V21.5686L0.691406 18.9808Z" fill="#1D2848"/>
<path d="M12.7817 19.4262H13.6684V20.3129H12.7817V19.4262ZM11.7471 19.4262H12.6338V20.3129H11.7471V19.4262ZM13.6684 19.167H12.7817V18.2803L13.6684 18.5016V19.167ZM12.6338 19.167H11.7471V18.5016L12.6338 18.2803V19.167Z" fill="#1D2848"/>
<path d="M25.6046 19.4262H26.4912V20.3129H25.6046V19.4262ZM26.6392 19.4262H27.5259V20.3129H26.6392V19.4262ZM25.6046 19.167H26.4912V18.2803L25.6046 18.5016V19.167ZM26.6392 19.167H27.5259V18.5016L26.6392 18.2803V19.167ZM19.8394 23.6761H21.0954V24.9322H19.8394V23.6761ZM18.3975 23.6761H19.6535V24.9322H18.3975V23.6761ZM21.0954 23.3068H19.8394V22.0507L21.0954 22.3834V23.3068ZM19.6168 23.3068H18.3975V22.3834L19.6168 22.0507V23.3068Z" fill="#1D2848"/>
<path fill-rule="evenodd" clip-rule="evenodd" d="M19.6224 33.8026C27.8275 33.8026 34.4427 27.1496 34.4427 18.9824C34.4427 10.8152 27.8642 4.16211 19.6591 4.16211C11.4541 4.16211 4.83887 10.7773 4.83887 18.9824C4.83887 27.1874 11.4174 33.8026 19.6224 33.8026ZM32.9254 18.9876C32.9254 26.3427 26.9755 32.2926 19.6204 32.2926C12.2653 32.2926 6.31543 26.3427 6.31543 18.9876C6.31543 11.6325 12.2653 5.68262 19.6204 5.68262C26.9755 5.68262 32.9254 11.6704 32.9254 18.9876ZM26.6035 15.1456L19.6178 17.3629L17.4005 16.6242V15.8855L15.9586 15.5161V16.1814L15.6993 16.108V15.4427H15.0707V15.9233L12.6688 15.1468L6.94025 20.5793V21.3926H9.74945L10.7107 22.6486L10.526 20.616H8.6414L12.6699 16.7722L16.2179 19.7293L18.6944 18.5467L10.7853 24.016V24.9772H14.0373L14.628 27.5272L14.6647 24.0527H12.3361L19.6166 19.1741L26.9338 24.0527H24.6052L24.6419 27.5272L25.2338 24.9772H28.4858V24.016L20.5767 18.5467L23.0532 19.7293L26.6012 16.7722L30.6297 20.616H28.7451L28.5237 22.6486L29.5216 21.3926H32.293V20.5793L26.6035 15.1456Z" fill="#1D2848"/>
<path d="M19.621 9.5216C21.9863 9.5216 24.2782 10.4083 26.0148 11.9982C27.3104 13.1873 28.256 14.7081 28.7495 16.396L26.9749 14.7328C26.9205 14.6823 26.8566 14.6432 26.7868 14.6178C26.7171 14.5923 26.643 14.5811 26.5689 14.5848C26.4955 14.5848 26.4576 14.5848 26.3842 14.6215L19.5843 16.7654L17.921 16.2481V15.9154C17.9184 15.7926 17.878 15.6735 17.8053 15.5744C17.7327 15.4753 17.6313 15.4009 17.515 15.3614L16.0731 14.992C16.0364 14.992 15.9618 14.9553 15.9251 14.9553C15.8464 14.9092 15.7571 14.8839 15.6659 14.8819H15.0373C14.942 14.8822 14.8482 14.906 14.7644 14.9512C14.6805 14.9964 14.6091 15.0617 14.5566 15.1412L12.7821 14.5872C12.7087 14.5872 12.6708 14.5505 12.5974 14.5505C12.5232 14.5465 12.4491 14.5576 12.3793 14.583C12.3095 14.6085 12.2456 14.6477 12.1913 14.6984L10.4168 16.3617C10.8974 14.6984 11.8208 13.1465 13.1514 11.9638C14.9994 10.4118 17.2534 9.52397 19.6186 9.52397L19.621 9.5216ZM19.621 8.93087C14.4098 8.93087 10.1232 12.9227 9.64258 18.0226L12.6732 15.14L15.0751 15.9166V15.4727H15.7037V16.138L15.963 16.2114V15.5461L17.4049 15.9154V16.6541L19.6222 17.3561L26.57 15.1388L29.6006 18.0214C29.1567 12.9215 24.8701 8.92969 19.6222 8.92969L19.621 8.93087Z" fill="#1D2848"/>
<path d="M58.6855 3.6799H48.8172V8.85439H53.2151C54.7671 8.85439 56.1344 9.11364 57.317 9.66767C58.4997 10.2217 59.3864 10.9616 59.9783 11.9596C60.5929 12.9998 60.9122 14.188 60.9016 15.3962C60.9016 17.3921 60.2363 19.0187 58.869 20.238C57.5017 21.4573 55.6538 22.086 53.3252 22.086H45.1201V0.650504H58.721V3.68109L58.6855 3.6799ZM48.8184 11.8483V19.0554H53.1796C54.4356 19.0554 55.3969 18.7227 56.0989 18.0574C56.8009 17.3921 57.1335 16.4687 57.1335 15.3595C57.1335 14.2881 56.8009 13.4381 56.0989 12.8095C55.3969 12.1809 54.4723 11.8483 53.253 11.8483H48.8184ZM77.2763 6.15646V22.086H73.6917V9.03906H69.1825L68.8865 14.5829C68.7018 17.2441 68.1845 19.1655 67.3345 20.3114C66.4846 21.4573 65.2285 22.0481 63.4907 22.0481H62.3814V19.0542L63.1201 18.9808C63.8967 18.8695 64.4874 18.3901 64.8201 17.5389C65.1894 16.6889 65.4108 15.1369 65.5221 12.9196L65.8181 6.15646H77.2763ZM91.024 6.15646H94.5719V22.086H91.024V11.4422L84.7781 22.0493H81.2302V6.15764H84.7781V16.7647L91.024 6.15646ZM110.428 10.5177C110.428 11.2197 110.207 11.885 109.799 12.4769C109.331 13.0979 108.706 13.5826 107.988 13.8809C109.799 14.5095 110.723 15.7655 110.723 17.5768C110.723 19.0554 110.132 20.2013 108.948 21.088C107.764 21.9747 106.177 22.3819 104.181 22.3819C102.962 22.3819 101.852 22.1605 100.854 21.7533C99.8565 21.3461 99.0799 20.7553 98.5259 20.0166C97.9718 19.2779 97.6759 18.3901 97.6759 17.3554H101.224C101.224 18.0207 101.52 18.538 102.074 18.982C102.665 19.4259 103.368 19.6473 104.254 19.6473C105.141 19.6473 105.806 19.4259 106.324 19.0187C106.841 18.6126 107.1 18.0953 107.1 17.43C107.1 16.6534 106.879 16.0994 106.435 15.7667C105.991 15.4341 105.289 15.2494 104.329 15.2494H101.779V12.6627H104.44C106.029 12.626 106.842 11.9974 106.842 10.7035C106.842 10.0382 106.621 9.55758 106.14 9.18822C105.696 8.81887 105.031 8.6342 104.256 8.6342C103.48 8.6342 102.814 8.81887 102.26 9.22611C101.706 9.59546 101.446 10.1128 101.446 10.7047H97.8984C97.8984 9.30069 98.4892 8.15475 99.673 7.26807C100.857 6.38138 102.334 5.93745 104.145 5.93745C106.105 5.93745 107.657 6.3435 108.765 7.15679C109.874 7.89549 110.428 9.04143 110.428 10.52V10.5177ZM119.408 15.7655H117.597V22.0481H114.013V6.15646H117.597V12.5136H119.186L123.584 6.15646H127.982L122.217 13.7696L128.462 22.0481H123.805L119.408 15.7655ZM140.364 6.15646H143.912V22.086H140.364V11.4422L134.119 22.0493H130.571V6.15764H134.119V16.7647L140.364 6.15646ZM157.66 6.15646H161.208V22.086H157.66V11.4422L151.414 22.0493H147.866V6.15764H151.414V16.7647L157.66 6.15646ZM159.36 0.0585938C159.36 1.27793 158.916 2.27589 158.066 3.05248C157.216 3.82907 156.034 4.19842 154.592 4.19842C153.15 4.19842 152.005 3.82907 151.117 3.05248C150.267 2.27589 149.823 1.27793 149.823 0.0585938H152.484C152.484 0.687203 152.669 1.20453 153.038 1.53719C153.408 1.90654 153.925 2.05452 154.554 2.05452C155.219 2.05452 155.7 1.86984 156.069 1.53719C156.438 1.16783 156.623 0.687203 156.623 0.0585938H159.358H159.36Z" fill="#1D2848"/>
<path d="M46.9261 33.4328H46.1495V36.0941H45.0781V29.8849H46.1495V32.5094H46.8515L48.9575 29.8849H50.2514L47.7749 32.8788L50.4361 36.0941H49.1055L46.9261 33.4328ZM50.9546 32.9155C50.9546 31.9921 51.2139 31.2155 51.6933 30.6236C52.1728 30.0317 52.876 29.7369 53.7259 29.7369C54.6126 29.7369 55.2779 30.0329 55.7586 30.6236C56.2392 31.2143 56.4973 31.9542 56.4973 32.9155V33.0635C56.4973 33.9869 56.238 34.7634 55.7586 35.3554C55.2791 35.9473 54.5759 36.2053 53.7259 36.2053C52.8393 36.2053 52.174 35.9094 51.6933 35.3554C51.2127 34.7634 50.9546 34.0247 50.9546 33.0635V32.9155ZM52.026 33.0635C52.026 33.7288 52.174 34.2828 52.432 34.7267C52.728 35.1328 53.134 35.3554 53.7259 35.3554C54.28 35.3554 54.7239 35.134 55.0199 34.7267C55.3158 34.2828 55.4638 33.7655 55.4638 33.0635V32.9155C55.4638 32.2502 55.3158 31.6962 55.0199 31.2522C54.7239 30.8083 54.3179 30.5869 53.7259 30.5869C53.1719 30.5869 52.728 30.8083 52.4699 31.2522C52.174 31.6962 52.0639 32.2502 52.0639 32.9155V33.0635H52.026ZM62.3738 30.7349H60.3044V36.0941H59.2331V30.7349H57.2005V29.8849H62.3749L62.3738 30.7349ZM68.0289 30.7349H65.9596V36.0941H64.8882V30.7349H62.8556V29.8849H68.0301L68.0289 30.7349ZM71.1707 36.2053C70.2841 36.2053 69.6187 35.9094 69.1014 35.3554C68.5841 34.8013 68.3248 34.0247 68.3248 33.1014V32.8421C68.3248 31.9554 68.5841 31.2155 69.1014 30.6248C69.6187 30.0341 70.2474 29.7748 70.9861 29.7748C71.836 29.7748 72.4647 30.0341 72.8707 30.5135C73.2768 30.993 73.4993 31.6962 73.4993 32.5461V33.2481H69.4341C69.4341 33.8768 69.6187 34.3941 69.9147 34.8001C70.2107 35.2062 70.6534 35.392 71.2086 35.392C71.578 35.392 71.9106 35.3554 72.2066 35.2441C72.5025 35.1328 72.7239 34.9848 72.9832 34.8001L73.3892 35.5021C73.1341 35.7448 72.8325 35.9333 72.5025 36.0562C72.0651 36.15 71.6193 36.1996 71.1719 36.2041L71.1707 36.2053ZM70.9861 30.6248C70.58 30.6248 70.2474 30.7728 69.9514 31.1054C69.6554 31.4381 69.5075 31.8441 69.4341 32.3615H72.4647V32.2135C72.4647 31.7329 72.3534 31.3635 72.0953 31.0675C71.8739 30.7716 71.5046 30.6248 70.9861 30.6248ZM74.7186 35.2441C75.0513 34.8747 75.2727 34.4675 75.4574 34.0981C75.642 33.6921 75.7533 33.1002 75.79 32.2135L75.8634 29.8849H79.8553V35.2441H80.6685V37.942H79.5972V36.1308H75.2727V37.942H74.238V35.2441H74.7186ZM76.8614 32.2135C76.8247 32.9155 76.7134 33.5441 76.5654 34.0247C76.4174 34.5054 76.1961 34.9114 75.9747 35.2441H78.8573V30.8462H76.9359L76.8614 32.2135ZM86.841 33.3961H86.1023V36.0941H85.0309V33.3961H84.2922L82.5555 36.0941H81.2249L83.5168 32.8042L81.4475 29.8849H82.7414L84.3301 32.4716H85.0688V29.8849H86.1402V32.4716H86.8789L88.5054 29.8849H89.7994L87.73 32.8042L90.0219 36.0941H88.6913L86.8433 33.3961H86.841ZM95.9694 36.0941H94.8981V33.4328H92.0522V36.0941H90.9808V29.8849H92.0522V32.5828H94.8981V29.8849H95.9694V36.0941ZM98.8153 32.0288H100.404C101.143 32.0288 101.735 32.2135 102.141 32.5828C102.547 32.9522 102.731 33.4328 102.731 34.0614C102.731 34.69 102.547 35.1707 102.141 35.54C101.735 35.9094 101.179 36.0941 100.441 36.0941H97.8162V29.8849H98.8875V32.0288H98.8153ZM98.8153 32.8788V35.2441H100.404C100.848 35.2441 101.143 35.1328 101.365 34.9114C101.55 34.69 101.661 34.4308 101.661 34.0614C101.661 33.7288 101.55 33.4328 101.365 33.2114C101.181 32.9901 100.848 32.8788 100.404 32.8788H98.8153ZM104.913 36.0941H103.842V29.8849H104.913V36.0941ZM110.79 29.8849H111.861V36.0941H110.79V31.5482L107.944 36.0941H106.872V29.8849H107.944V34.4308L110.79 29.8849ZM111.086 27.335C111.086 27.8156 110.938 28.1849 110.642 28.4442C110.346 28.7402 109.903 28.8503 109.386 28.8503C108.868 28.8503 108.424 28.7023 108.13 28.4442C107.984 28.2995 107.869 28.1264 107.793 27.9356C107.716 27.7448 107.68 27.5404 107.686 27.335H108.536C108.529 27.5588 108.594 27.779 108.72 27.9636C108.868 28.1115 109.09 28.1849 109.386 28.1849C109.682 28.1849 109.903 28.1115 110.051 27.9636C110.199 27.8156 110.272 27.5942 110.272 27.335H111.086ZM121.545 36.0941H120.473V30.7716H117.627V36.1308H116.556V29.8849H121.546L121.545 36.0941ZM123.023 32.9155C123.023 31.9921 123.283 31.2155 123.762 30.6236C124.241 30.0317 124.945 29.7369 125.795 29.7369C126.681 29.7369 127.347 30.0329 127.827 30.6236C128.308 31.2143 128.566 31.9542 128.566 32.9155V33.0635C128.566 33.9869 128.307 34.7634 127.827 35.3554C127.348 35.9473 126.645 36.2053 125.795 36.2053C124.908 36.2053 124.243 35.9094 123.762 35.3554C123.281 34.7634 123.023 34.0247 123.023 33.0635V32.9155ZM124.095 33.0635C124.095 33.7288 124.243 34.2828 124.501 34.7267C124.797 35.1328 125.203 35.3554 125.795 35.3554C126.349 35.3554 126.793 35.134 127.089 34.7267C127.384 34.2828 127.532 33.7655 127.532 33.0635V32.9155C127.532 32.2502 127.384 31.6962 127.089 31.2522C126.793 30.8083 126.387 30.5869 125.795 30.5869C125.241 30.5869 124.797 30.8083 124.539 31.2522C124.243 31.6962 124.133 32.2502 124.133 32.9155V33.0635H124.095ZM132.448 35.3554C132.854 35.3554 133.186 35.2441 133.482 35.0227C133.778 34.8013 133.926 34.5054 133.926 34.136H134.924C134.924 34.69 134.665 35.2074 134.186 35.6146C133.706 36.0218 133.114 36.2432 132.449 36.2432C131.524 36.2432 130.86 35.9473 130.38 35.3565C129.899 34.7658 129.678 34.0259 129.678 33.1392V32.88C129.678 31.9933 129.899 31.2167 130.38 30.6627C130.86 30.0708 131.526 29.776 132.449 29.776C133.188 29.776 133.779 29.9974 134.223 30.4046C134.667 30.8118 134.925 31.3659 134.925 32.0312H133.927C133.927 31.6251 133.78 31.2925 133.521 31.0332C133.263 30.774 132.893 30.6272 132.487 30.6272C131.858 30.6272 131.415 30.8485 131.193 31.2558C130.934 31.6997 130.823 32.217 130.823 32.8445V33.1037C130.823 33.769 130.935 34.2864 131.193 34.7303C131.378 35.1363 131.821 35.3589 132.449 35.3589L132.448 35.3554ZM138.73 36.2053C137.844 36.2053 137.178 35.9094 136.661 35.3554C136.144 34.8013 135.884 34.0247 135.884 33.1014V32.8421C135.884 31.9554 136.144 31.2155 136.661 30.6248C137.178 30.0341 137.807 29.7748 138.546 29.7748C139.396 29.7748 140.024 30.0341 140.43 30.5135C140.836 30.993 141.059 31.6962 141.059 32.5461V33.2481H136.957C136.957 33.8768 137.142 34.3941 137.438 34.8001C137.733 35.2062 138.176 35.392 138.731 35.392C139.101 35.392 139.433 35.3554 139.729 35.2441C140.025 35.1328 140.247 34.9848 140.506 34.8001L140.912 35.5021C140.657 35.7448 140.355 35.9333 140.025 36.0562C139.601 36.1525 139.167 36.2021 138.731 36.2041L138.73 36.2053ZM138.546 30.6248C138.14 30.6248 137.807 30.7728 137.511 31.1054C137.215 31.4381 137.067 31.8441 136.994 32.3615H140.024V32.2135C140.024 31.7329 139.913 31.3635 139.655 31.0675C139.397 30.7716 139.026 30.6248 138.546 30.6248ZM147.415 29.8849V36.0941H146.343V30.7716H144.237L144.164 32.5828C144.091 33.8768 143.943 34.7634 143.647 35.3175C143.351 35.8715 142.833 36.1308 142.058 36.1308H141.762L141.799 35.2074H142.02C142.426 35.2074 142.685 35.0227 142.833 34.6533C142.981 34.284 143.055 33.582 143.129 32.584L143.241 29.9228H147.417L147.415 29.8849ZM148.893 32.9155C148.893 31.9921 149.153 31.2155 149.632 30.6236C150.111 30.0317 150.815 29.7369 151.665 29.7369C152.551 29.7369 153.217 30.0329 153.697 30.6236C154.178 31.2143 154.436 31.9542 154.436 32.9155V33.0635C154.436 33.9869 154.177 34.7634 153.697 35.3554C153.218 35.9473 152.515 36.2053 151.665 36.2053C150.778 36.2053 150.113 35.9094 149.632 35.3554C149.151 34.7634 148.893 34.0247 148.893 33.0635V32.9155ZM149.928 33.0635C149.928 33.7288 150.076 34.2828 150.334 34.7267C150.63 35.1328 151.036 35.3554 151.628 35.3554C152.182 35.3554 152.626 35.134 152.922 34.7267C153.218 34.2828 153.366 33.7655 153.366 33.0635V32.9155C153.366 32.2502 153.218 31.6962 152.922 31.2522C152.626 30.8083 152.22 30.5869 151.628 30.5869C151.074 30.5869 150.63 30.8083 150.372 31.2522C150.076 31.6962 149.966 32.2502 149.966 32.9155V33.0635H149.928ZM157.727 33.4328H156.95V36.0941H155.879V29.8849H156.95V32.5094H157.652L159.76 29.8849H161.054L158.577 32.8788L161.238 36.0941H159.908L157.727 33.4328Z" fill="#1D2848"/>
</g>
<defs>
<clipPath id="clip0_1298_4069">
<rect width="161" height="37.8823" fill="white" transform="translate(0.691406 0.0585938)"/>
</clipPath>
</defs>
</svg>
