<svg width="157" height="40" viewBox="0 0 157 40" fill="none" xmlns="http://www.w3.org/2000/svg">
<g clip-path="url(#clip0_1298_4066)">
<path d="M1.66316 35.8766V37.3362H0.869141V32.2034H1.66316V34.9208L4.36217 32.2034H5.31466L3.25037 34.2669L5.57906 37.3362H4.68078L2.77496 34.8198L1.66316 35.8766ZM7.16626 32.2034H9.65342C10.1297 32.2034 10.5534 32.3535 10.8178 32.6063C11.1347 32.8573 11.2415 33.1592 11.2415 33.5621C11.2415 33.7631 11.1881 33.9641 11.083 34.1659C10.9762 34.3669 10.8711 34.4679 10.7652 34.5179L10.6067 34.618C10.6067 34.618 10.6593 34.618 10.7118 34.6689C10.7652 34.6689 10.8178 34.7189 10.9237 34.769C11.0296 34.8198 11.1355 34.9208 11.1881 34.9708C11.2415 35.0709 11.3466 35.1718 11.3999 35.3228C11.4533 35.4737 11.5059 35.6247 11.5059 35.8265C11.5059 36.2794 11.3474 36.6314 11.0296 36.9333C10.7127 37.2353 10.289 37.3362 9.75935 37.3362H7.16626V32.2034ZM10.4474 33.5621C10.4474 33.1092 10.183 32.8573 9.60087 32.8573H7.90774V34.2669H9.60087C10.183 34.2669 10.4474 34.015 10.4474 33.5621ZM9.75935 34.9208H7.96029V36.6314H9.75935C10.0763 36.6314 10.289 36.5814 10.4474 36.4304C10.6059 36.2794 10.7118 36.0784 10.7118 35.7757C10.7118 35.4746 10.6059 35.2727 10.4474 35.1218C10.289 34.9716 10.0237 34.9208 9.75935 34.9208ZM14.7353 34.3669L16.7996 34.065C16.7996 33.6622 16.6937 33.3602 16.4293 33.1592C16.1649 32.9073 15.8471 32.8064 15.4768 32.8064C15.2124 32.8064 14.9472 32.8565 14.6828 33.0083C14.4184 33.1084 14.2591 33.2593 14.1532 33.4103L13.9947 33.6121L13.4651 33.1084C13.4651 33.0583 13.5184 33.0583 13.571 33.0083L13.8362 32.7564C13.9421 32.6563 14.1006 32.5554 14.2591 32.4545C14.4175 32.3544 14.5769 32.3043 14.8412 32.2026C15.1065 32.1025 15.3175 32.1025 15.5293 32.1025C16.1649 32.1025 16.6411 32.3035 17.064 32.6555C17.4877 33.0583 17.6996 33.5112 17.6996 34.065V37.3354H16.9055V36.6314C16.9055 36.6314 16.853 36.6814 16.853 36.7315L16.6411 36.9333C16.5352 37.0334 16.4293 37.0835 16.2708 37.1844C16.1649 37.2344 16.0056 37.3354 15.7937 37.3862C15.5827 37.4363 15.3709 37.4863 15.159 37.4863C14.6302 37.4863 14.1532 37.3362 13.7828 37.0334C13.4125 36.7315 13.254 36.3795 13.254 35.9767C13.254 35.5747 13.4125 35.2219 13.6769 34.9199C13.8354 34.618 14.2582 34.467 14.7353 34.3669ZM15.1065 36.7315C15.6353 36.7315 16.059 36.5814 16.3767 36.2786C16.6937 35.9767 16.8522 35.5747 16.8522 35.0709V34.769L15.0006 35.0709C14.3125 35.1718 13.9947 35.4737 13.9947 35.9767C13.9947 36.2286 14.1006 36.3795 14.3116 36.5305C14.4709 36.6306 14.7353 36.7315 15.1065 36.7315ZM20.7697 36.5305V39.5998H19.9757V32.2534H20.7697V33.0583L20.8756 32.9582L21.0875 32.7564C21.1934 32.6563 21.3519 32.5554 21.4578 32.4545C21.5637 32.3544 21.7748 32.3043 21.9874 32.2534C22.1985 32.2034 22.4103 32.1534 22.6747 32.1534C23.3628 32.1534 23.945 32.4044 24.4746 32.9582C25.0034 33.5112 25.2686 34.1151 25.2686 34.8198C25.2686 35.5747 25.0034 36.1785 24.4746 36.6814C23.945 37.1852 23.3628 37.4871 22.6747 37.4871C22.4637 37.4871 22.1993 37.4371 21.9874 37.3862C21.7756 37.3362 21.6163 37.2353 21.4578 37.1852C21.2993 37.0843 21.1934 37.0343 21.0875 36.9333C20.9816 36.8332 20.8756 36.7824 20.8231 36.6814L20.7697 36.5305ZM21.4053 33.3611C21.0341 33.7631 20.8231 34.216 20.8231 34.7189C20.8231 35.2227 21.0341 35.7256 21.4053 36.0784C21.7756 36.4304 22.2518 36.6814 22.7281 36.6814C23.2035 36.6814 23.628 36.4804 23.9984 36.1285C24.3687 35.7256 24.5271 35.2727 24.5271 34.7189C24.5271 34.1659 24.3687 33.713 23.9984 33.3102C23.628 32.9073 23.2043 32.7564 22.7281 32.7564C22.1985 32.7564 21.7756 32.9591 21.4053 33.3611ZM26.5914 32.8573V32.1525H31.1954V32.8573H29.2913V37.2861H28.4972V32.8573H26.5914ZM34.1063 34.3669L36.1706 34.065C36.1706 33.6622 36.0646 33.3602 35.8002 33.1592C35.5358 32.9073 35.2181 32.8064 34.8478 32.8064C34.5834 32.8064 34.3181 32.8565 34.0537 33.0083C33.7893 33.1084 33.63 33.2593 33.5249 33.4103L33.3665 33.6121L32.836 33.1084C32.836 33.0583 32.8894 33.0583 32.9428 33.0083L33.2072 32.7564C33.3131 32.6563 33.4716 32.5554 33.63 32.4545C33.7885 32.3544 33.9478 32.3043 34.2122 32.2026C34.4241 32.1525 34.6893 32.1025 34.9003 32.1025C35.5358 32.1025 36.0121 32.3035 36.435 32.6555C36.8587 33.0583 37.0705 33.5112 37.0705 34.065V37.3354H36.2765V36.6314C36.2765 36.6314 36.2239 36.6814 36.2239 36.7315C36.2239 36.7815 36.118 36.8324 36.0121 36.9333C35.9062 37.0334 35.8002 37.0835 35.6418 37.1844C35.5359 37.2344 35.3765 37.3354 35.1655 37.3862C34.9537 37.4363 34.7418 37.4863 34.53 37.4863C34.0012 37.4863 33.5249 37.3362 33.1538 37.0334C32.7835 36.7315 32.625 36.3795 32.625 35.9767C32.625 35.5747 32.7835 35.2219 33.0479 34.9199C33.3131 34.618 33.5775 34.467 34.1071 34.3669H34.1063ZM34.424 36.7315C34.9537 36.7315 35.3765 36.5814 35.6943 36.2786C36.0113 35.9767 36.1706 35.5747 36.1706 35.0709V34.769L34.319 35.0709C33.63 35.1718 33.3131 35.4737 33.3131 35.9767C33.3131 36.2286 33.419 36.3795 33.63 36.5305C33.7885 36.6306 34.1063 36.7315 34.424 36.7315ZM39.928 32.2034H43.8981V37.3362H43.1041V32.9073H40.7228V33.713C40.7228 34.4679 40.6695 35.0717 40.6169 35.5747C40.5635 36.0784 40.4051 36.4804 40.2466 36.7323C40.0881 36.9842 39.9288 37.1852 39.717 37.2853C39.5025 37.3886 39.2669 37.4403 39.0289 37.4363C38.9229 37.4363 38.8704 37.4363 38.7645 37.3862C38.6586 37.3862 38.606 37.3362 38.5526 37.3362H38.5001V36.5814C38.6586 36.6314 38.817 36.6814 38.9755 36.6814C39.1882 36.6814 39.3992 36.6314 39.5051 36.4813C39.611 36.3295 39.7703 36.0784 39.8229 35.6247C39.8754 35.1718 39.9814 34.5179 39.9814 33.713V32.2034H39.928ZM49.6673 33.7631V34.4679H45.8565V33.7631H49.6673ZM55.4873 37.3362V32.9073H52.3638V37.3362H51.5697V32.2034H56.2805V37.3362H55.4873ZM59.8286 34.3669L61.8937 34.065C61.8937 33.6622 61.7878 33.3602 61.5225 33.1592C61.2581 32.9073 60.9404 32.8064 60.57 32.8064C60.3056 32.8064 60.0412 32.8565 59.776 33.0083C59.5623 33.0841 59.3775 33.2246 59.2472 33.4103L59.0888 33.6121L58.5591 33.1084C58.5591 33.0583 58.6117 33.0583 58.6651 33.0083L58.9295 32.7564C59.0354 32.6563 59.1939 32.5554 59.3532 32.4545C59.5116 32.3544 59.6701 32.3043 59.9353 32.2026C60.1997 32.1025 60.4107 32.1025 60.6234 32.1025C61.2581 32.1025 61.7344 32.3035 62.1581 32.6555C62.581 33.0583 62.7928 33.5112 62.7928 34.065V37.3354H61.9996V36.6314C61.9996 36.6314 61.9462 36.6814 61.9462 36.7315L61.7344 36.9333C61.6285 37.0334 61.5225 37.0835 61.3641 37.1844C61.2581 37.2344 61.0997 37.3354 60.8878 37.3862C60.676 37.4363 60.4641 37.4863 60.2531 37.4863C59.7235 37.4863 59.2472 37.3362 58.8769 37.0334C58.5058 36.7315 58.3473 36.3795 58.3473 35.9767C58.3473 35.5747 58.5057 35.2219 58.771 34.9199C58.9295 34.618 59.2989 34.467 59.8286 34.3669ZM60.1472 36.7315C60.676 36.7315 61.0997 36.5814 61.4166 36.2786C61.7344 35.9767 61.8937 35.5747 61.8937 35.0709V34.769L60.0412 35.0709C59.3532 35.1718 59.0354 35.4737 59.0354 35.9767C59.0354 36.2286 59.1413 36.3795 59.3523 36.5305C59.5116 36.6306 59.776 36.7315 60.1472 36.7315ZM65.8596 36.5305V39.5998H65.0664V32.2534H65.8596V33.0583L65.9655 32.9582L66.1774 32.7564C66.2833 32.6563 66.4418 32.5554 66.5477 32.4545C66.6536 32.3544 66.8655 32.3043 67.0773 32.2534C67.2892 32.2034 67.501 32.1534 67.7654 32.1534C68.4535 32.1534 69.0357 32.4044 69.5645 32.9582C70.0941 33.5112 70.3585 34.1151 70.3585 34.8198C70.3585 35.5747 70.0941 36.1785 69.5645 36.6814C69.0357 37.1852 68.4535 37.4871 67.7654 37.4871C67.5536 37.4871 67.2892 37.4371 67.0773 37.3862C66.8655 37.3362 66.707 37.2353 66.5477 37.1852C66.3893 37.0843 66.2833 37.0343 66.1774 36.9333C66.0715 36.8332 65.9656 36.7824 65.913 36.6814L65.8596 36.5305ZM66.4426 33.3611C66.0715 33.7631 65.8596 34.216 65.8596 34.7189C65.8596 35.2227 66.0715 35.7256 66.4426 36.0784C66.813 36.4304 67.2892 36.6814 67.7654 36.6814C68.2417 36.6814 68.6654 36.4804 69.0357 36.1285C69.406 35.7256 69.5645 35.2727 69.5645 34.7189C69.5645 34.1659 69.406 33.713 69.0357 33.3102C68.6654 32.9073 68.2417 32.7564 67.7654 32.7564C67.2892 32.7564 66.813 32.9591 66.4426 33.3611ZM73.1101 35.8766V37.3362H72.3169V32.2034H73.1101V34.9208L75.8099 32.2034H76.7624L74.6981 34.2669L77.0268 37.3362H76.1269L74.2219 34.8198L73.1101 35.8766ZM12.0889 7.24344C14.6828 7.24344 16.9055 8.19927 18.7046 10.0609C20.557 11.9225 21.457 14.1878 21.457 16.9051C21.457 19.6225 20.557 21.887 18.7046 23.7486C16.853 25.6102 14.6828 26.566 12.0889 26.566C9.38986 26.566 7.3264 25.6611 5.84429 23.8995V26.0631H0.869141V0.449219H5.84429V9.90992C7.32557 8.14922 9.44324 7.24344 12.0889 7.24344ZM7.37895 20.5783C8.38482 21.5342 9.65509 22.0379 11.1898 22.0379C12.7244 22.0379 13.9947 21.5342 14.9997 20.5783C16.0056 19.6225 16.5344 18.3639 16.5344 16.8543C16.5344 15.3446 16.0056 14.0869 14.9997 13.131C13.9947 12.1744 12.7244 11.6714 11.1898 11.6714C9.65509 11.6714 8.38482 12.1744 7.37811 13.131C6.37308 14.0869 5.89683 15.3446 5.89683 16.8543C5.89683 18.414 6.37308 19.6225 7.37895 20.5783ZM41.3567 23.7477C39.3984 25.6102 36.9637 26.566 34.1054 26.566C31.248 26.566 28.8659 25.6102 26.9075 23.7477C24.95 21.8861 23.9441 19.6217 23.9441 16.9043C23.9441 14.187 24.95 11.9225 26.9075 10.0609C28.8659 8.19843 31.248 7.24261 34.1054 7.24261C36.9637 7.24261 39.345 8.19843 41.3567 10.0609C43.3151 11.9225 44.3201 14.187 44.3201 16.9043C44.3201 19.5716 43.3676 21.8861 41.3567 23.7477ZM30.4531 20.5275C31.459 21.4833 32.6759 21.937 34.158 21.937C35.6401 21.937 36.9104 21.4833 37.8629 20.5275C38.8679 19.5716 39.3441 18.3639 39.3441 16.9043C39.3441 15.4447 38.8687 14.237 37.8629 13.2812C36.857 12.3253 35.6401 11.8716 34.158 11.8716C32.6759 11.8716 31.459 12.3253 30.4531 13.2812C29.4472 14.237 28.971 15.4447 28.971 16.9043C28.971 18.3639 29.4472 19.5716 30.4531 20.5275ZM58.3998 12.2753H54.0594V19.8736C54.0594 20.5275 54.2179 20.9803 54.5356 21.2831C54.8534 21.5842 55.3297 21.7352 56.0178 21.786C56.6533 21.8361 57.4473 21.8361 58.3998 21.786V26.0631C55.0127 26.4151 52.5781 26.1131 51.2019 25.1573C49.8257 24.2015 49.0851 22.4399 49.0851 19.9236V12.3262H45.7497V7.79725H49.0843V4.12324L54.0586 2.71368V7.8473H58.399V12.2761L58.3998 12.2753ZM75.9158 7.74554H80.8902V26.013H75.9158V23.8495C74.4337 25.611 72.316 26.5168 69.6704 26.5168C67.1299 26.5168 64.9071 25.5601 63.0547 23.6977C61.2023 21.8361 60.3023 19.5716 60.3023 16.8551C60.3023 14.1377 61.2023 11.8733 63.0547 10.0108C64.9063 8.14922 67.0765 7.1934 69.6704 7.1934C72.3694 7.1934 74.4329 8.09918 75.9158 9.85987V7.74554ZM66.8121 20.5775C67.818 21.5333 69.0883 22.0371 70.6229 22.0371C72.1576 22.0371 73.4278 21.5333 74.4337 20.5775C75.4388 19.6217 75.9684 18.3631 75.9684 16.8534C75.9684 15.3438 75.4388 14.086 74.4337 13.1302C73.4278 12.1744 72.1576 11.6706 70.6229 11.6706C69.0883 11.6706 67.818 12.1744 66.8121 13.1302C65.8071 14.086 65.3308 15.3446 65.3308 16.8543C65.2775 18.414 65.8063 19.6217 66.8121 20.5775ZM96.0825 7.24261C98.1993 7.24261 99.9458 7.89651 101.269 9.25518C102.646 10.6147 103.333 12.4254 103.333 14.7908V26.013H98.3586V15.3955C98.3586 14.1878 97.9883 13.232 97.3002 12.5772C96.6121 11.9233 95.6596 11.6214 94.5478 11.6214C93.2775 11.6214 92.2191 12.0243 91.4785 12.7791C90.6845 13.5339 90.3141 14.6907 90.3141 16.2004V26.0631H85.339V7.79642H90.3141V9.85904C91.5844 8.09835 93.4894 7.24261 96.0825 7.24261ZM126.248 26.516C123.337 26.516 120.956 25.6102 118.997 23.7477C117.039 21.8861 116.086 19.6217 116.086 16.8543C116.086 14.1369 117.039 11.8216 118.997 9.95996C120.956 8.09835 123.337 7.19256 126.248 7.19256C128.1 7.19256 129.847 7.59458 131.382 8.45032C132.917 9.30523 134.081 10.4629 134.875 11.8716L130.588 14.237C130.218 13.4822 129.636 12.8783 128.842 12.4254C128.048 11.9725 127.201 11.7715 126.195 11.7715C124.713 11.7715 123.496 12.2244 122.49 13.1811C121.538 14.1369 121.008 15.2937 121.008 16.8034C121.008 18.263 121.485 19.4198 122.49 20.3765C123.443 21.3323 124.713 21.786 126.195 21.786C127.201 21.786 128.1 21.5842 128.894 21.1313C129.655 20.7536 130.27 20.1341 130.641 19.3698L134.928 21.6843C134.081 23.1439 132.917 24.2515 131.329 25.1565C129.794 26.1131 128.1 26.516 126.248 26.516ZM151.863 7.74554H156.838V26.013H151.863V23.8495C150.381 25.611 148.264 26.5168 145.618 26.5168C143.077 26.5168 140.855 25.5601 139.002 23.6977C137.15 21.8361 136.25 19.5716 136.25 16.8551C136.25 14.1377 137.15 11.8733 139.002 10.0108C140.855 8.14922 143.025 7.1934 145.618 7.1934C148.317 7.1934 150.381 8.09918 151.863 9.85987V7.74554ZM142.707 20.5775C143.713 21.5333 144.982 22.0371 146.518 22.0371C148.053 22.0371 149.323 21.5333 150.328 20.5775C151.334 19.6217 151.863 18.3631 151.863 16.8534C151.863 15.3438 151.334 14.086 150.328 13.1302C149.323 12.1744 148.053 11.6706 146.518 11.6706C144.982 11.6706 143.713 12.1744 142.707 13.1302C141.701 14.086 141.225 15.3446 141.225 16.8543C141.172 18.414 141.701 19.6217 142.707 20.5775Z" fill="#1D2848"/>
<path d="M107.564 0.449457V9.60823C107.67 9.40722 107.829 9.15533 107.987 8.95433C109.099 7.39464 112.116 6.84083 112.116 6.84083C112.116 6.84083 112.698 9.75919 111.163 11.6208C110.105 12.8794 108.464 13.3823 107.564 13.5333V26.0133H112.54V0.399414H107.564V0.449457Z" fill="#1D2848"/>
</g>
<defs>
<clipPath id="clip0_1298_4066">
<rect width="155.968" height="39.2006" fill="white" transform="translate(0.869141 0.399414)"/>
</clipPath>
</defs>
</svg>
