<svg width="174" height="28" viewBox="0 0 174 28" fill="none" xmlns="http://www.w3.org/2000/svg">
<g clip-path="url(#clip0_1298_4104)">
<path fill-rule="evenodd" clip-rule="evenodd" d="M158.888 14.2098V1.28355H152.287V27.1493H158.888V22.4285L167.383 13.4472V27.1493H173.984V1.28355H167.383V5.18905L158.888 14.223V14.2098ZM126.224 27.1493H132.47V15.3802C135.31 15.2224 135.836 16.5637 137.493 20.0747C138.953 23.1254 140.32 26.4918 144.489 26.4918C145.199 26.4918 145.672 26.3866 146.632 26.0315V20.6796C144.739 20.5218 144.949 19.7065 143.542 17.3132C141.583 13.789 140.386 12.8686 139.084 12.6713C140.64 12.2291 141.964 11.2017 142.78 9.80465C143.792 8.29242 144.542 6.85908 146.172 6.85908C146.369 6.85908 145.686 6.85908 146.619 6.91168V1.3493C145.686 0.994258 145.475 0.849609 144.384 0.849609C140.662 0.849609 138.664 3.30863 136.494 6.81963C135.389 8.60801 134.364 10.186 132.483 10.0282V1.28355H125.856V10.0282C123.975 10.186 123.318 8.58171 122.226 6.81963C120.07 3.29548 118.084 0.849609 114.363 0.849609C113.258 0.849609 112.666 0.994258 111.733 1.3493V6.92483C111.733 6.87223 112.39 6.87223 112.601 6.87223C114.205 6.87223 115.231 8.30557 116.256 9.83095C116.914 10.7909 117.795 12.0664 119.886 12.6845C118.584 12.8949 116.73 13.8153 114.784 17.3264C113.39 19.7196 113.6 20.5481 110.773 20.6927V26.0447C111.72 26.3997 113.008 26.5049 113.705 26.5049C117.874 26.5049 119.662 23.1386 121.122 20.0878C122.779 16.5505 122.095 15.2224 125.869 15.3933V27.1493H126.224ZM68.3251 7.03003V27.1493H74.9264V7.03003H81.5407V1.28355H62.6707V7.03003H68.3251ZM37.9359 21.9156C40.9603 25.0322 43.6561 26.5181 47.8377 26.5181C53.9129 26.5181 60.7377 23.2438 60.7377 13.3551C60.7377 2.99303 53.0582 0.862759 48.0875 0.862759C46.023 0.862759 42.2096 1.62545 38.738 4.62361L42.4594 8.70006C43.1315 7.91723 43.9646 7.28873 44.9019 6.85753C45.8392 6.42632 46.8586 6.20258 47.8903 6.20159C52.2034 6.20159 52.6505 9.77835 52.7031 11.4615L44.7475 11.0013V16.5242L52.7031 16.0508C52.5979 17.4842 52.0719 21.153 47.8114 21.153C46.6192 21.1367 45.4471 20.843 44.3881 20.2952C43.329 19.7475 42.4121 18.9606 41.7099 17.997L37.9227 21.9156H37.9359ZM89.0361 8.85786C91.0763 7.42482 93.4768 6.59125 95.9661 6.45144C98.8854 6.45144 99.5823 7.37193 99.5297 10.2386C91.2979 10.4358 85.3673 12.6319 85.3673 19.4172C85.3673 23.0334 87.5765 26.5181 93.5202 26.5181C96.3985 26.588 99.2036 25.6062 101.41 23.7566C102.922 26.3603 104.855 26.5181 106.105 26.5181C107.012 26.5181 107.946 26.3603 107.946 26.0447V20.7059C106.065 20.8637 106.065 19.2199 106.065 16.9845V9.56795C106.065 6.80648 105.671 0.849609 96.5315 0.849609C94.9273 0.849609 90.6799 0.994257 86.1432 4.26857L89.0361 8.85786ZM99.464 15.0909V18.9701C97.5704 19.8906 96.4395 20.9031 95.0719 20.9031C93.6254 20.9031 92.3368 20.2982 92.3368 18.7991C92.3368 16.4059 94.7432 15.0383 99.464 15.0909ZM17.8561 27.1493H0.40625L2.58912 10.0545L17.238 0.849609L30.046 16.3927L30.1512 17.0239L17.2775 2.42759L17.3169 4.13707L30.2564 17.6814L30.3616 18.3389L17.3564 5.84655L17.3958 7.70067L30.4142 19.0621L30.5325 19.7196L17.4484 9.38385L17.4879 11.1328L30.6772 20.456L30.7824 21.1135L17.5273 12.8291L17.5668 14.4334L30.8218 21.7052L30.927 22.3627L17.6194 16.1166L17.6588 17.8655L31.1111 23.0991L31.2163 23.7566L17.7114 19.5487L17.7509 21.416L31.3347 24.5193L31.4399 25.1768L17.8035 23.1123L17.8429 24.8218L31.5319 25.8474L31.6371 26.8205L17.8561 27.1624V27.1493Z" fill="#1D2848"/>
</g>
<defs>
<clipPath id="clip0_1298_4104">
<rect width="173.578" height="26.2997" fill="white" transform="translate(0.407227 0.850586)"/>
</clipPath>
</defs>
</svg>
