<svg width="186" height="26" viewBox="0 0 186 26" fill="none" xmlns="http://www.w3.org/2000/svg">
<g>
<path fill-rule="evenodd" clip-rule="evenodd" d="M12.9916 12.6271H25.0956V14.3476C25.0956 17.6842 23.9953 20.3952 21.7945 22.4806C19.6986 24.566 16.8691 25.6087 13.306 25.6087C9.53333 25.6087 6.44182 24.4096 4.0315 22.0114C1.62118 19.6132 0.416016 16.6415 0.416016 13.0963C0.416016 9.65543 1.62118 6.68375 4.0315 4.18128C6.44182 1.78308 9.42853 0.583984 12.9916 0.583984C15.2971 0.583984 17.3931 1.10533 19.2794 2.14803C21.1658 3.19072 22.6329 4.59836 23.6809 6.37094L20.2226 8.24779C19.5938 7.10083 18.6506 6.1624 17.3931 5.43252C16.0307 4.8069 14.5636 4.49409 12.9916 4.49409C10.4765 4.49409 8.43296 5.32825 6.86101 6.99656C5.18426 8.66487 4.34589 10.6981 4.34589 13.0963C4.34589 15.5988 5.18426 17.6842 6.86101 19.3525C8.53776 20.9165 10.6861 21.6986 13.306 21.6986C15.4019 21.6986 17.1311 21.2293 18.4934 20.2909C19.8558 19.2482 20.7466 17.8927 21.1658 16.2244H12.9916V12.6271ZM48.9893 21.855C46.579 24.3574 43.6446 25.6087 40.1864 25.6087C36.6233 25.6087 33.6366 24.3574 31.2262 21.855C28.8159 19.4568 27.6108 16.5372 27.6108 13.0963C27.6108 9.55116 28.8159 6.57948 31.2262 4.18128C33.6366 1.78308 36.6233 0.583984 40.1864 0.583984C43.6446 0.583984 46.579 1.78308 48.9893 4.18128C51.3996 6.57948 52.6048 9.55116 52.6048 13.0963C52.6048 16.5372 51.3996 19.4568 48.9893 21.855ZM34.0558 19.1961C35.7325 20.8644 37.776 21.6986 40.1864 21.6986C42.5967 21.6986 44.5878 20.8644 46.1598 19.1961C47.8365 17.5278 48.6749 15.4945 48.6749 13.0963C48.6749 10.5939 47.8365 8.50847 46.1598 6.84016C44.5878 5.17184 42.5967 4.33769 40.1864 4.33769C37.6712 4.33769 35.6277 5.17184 34.0558 6.84016C32.379 8.50847 31.5406 10.5939 31.5406 13.0963C31.5406 15.4945 32.379 17.5278 34.0558 19.1961ZM76.4984 21.855C74.0881 24.3574 71.1538 25.6087 67.6955 25.6087C64.1324 25.6087 61.1457 24.3574 58.7354 21.855C56.325 19.4568 55.1199 16.5372 55.1199 13.0963C55.1199 9.55116 56.325 6.57948 58.7354 4.18128C61.1457 1.78308 64.1324 0.583984 67.6955 0.583984C71.1538 0.583984 74.0881 1.78308 76.4984 4.18128C78.9087 6.57948 80.1139 9.55116 80.1139 13.0963C80.1139 16.5372 78.9087 19.4568 76.4984 21.855ZM61.5649 19.1961C63.2416 20.8644 65.2852 21.6986 67.6955 21.6986C70.1058 21.6986 72.0969 20.8644 73.6689 19.1961C75.3456 17.5278 76.184 15.4945 76.184 13.0963C76.184 10.5939 75.3456 8.50847 73.6689 6.84016C72.0969 5.17184 70.1058 4.33769 67.6955 4.33769C65.2852 4.33769 63.2416 5.17184 61.5649 6.84016C59.8881 8.50847 59.0498 10.5939 59.0498 13.0963C59.0498 15.4945 59.8881 17.5278 61.5649 19.1961ZM83.8866 1.0532H93.3183C96.6718 1.0532 99.4489 2.20016 101.65 4.49409C103.85 6.78802 104.951 9.65543 104.951 13.0963C104.951 16.433 103.85 19.2482 101.65 21.5422C99.4489 23.9404 96.6718 25.1395 93.3183 25.1395H83.8866V1.0532ZM87.8165 21.2293H93.3183C95.6238 21.2293 97.4577 20.4473 98.8201 18.8833C100.287 17.4235 101.021 15.4945 101.021 13.0963C101.021 10.6981 100.287 8.71701 98.8201 7.15296C97.4577 5.58892 95.6238 4.8069 93.3183 4.8069H87.8165V21.2293ZM121.299 16.3808H108.566V12.7835H121.299V16.3808ZM140.162 4.18128L129.316 21.2293H140.477V24.9831H124.443V21.6986L135.289 4.6505H124.6V0.896793H140.162V4.18128ZM147.865 14.6604V21.2293H158.554V24.9831H143.778V0.896793H158.397V4.6505H147.865V11.0631H157.454V14.6604H147.865ZM181.19 0.896793H185.435V24.9831H181.505V7.77858L174.117 19.9781H173.645L166.257 7.77858V24.9831H162.327V0.896793H166.571L173.802 12.9399L181.19 0.896793Z" fill="#1D2848"/>
</g>
</svg>
