<svg width="202" height="23" viewBox="0 0 202 23" fill="none" xmlns="http://www.w3.org/2000/svg">
<path fill-rule="evenodd" clip-rule="evenodd" d="M27.8426 14.108V8.8282C27.8426 8.8282 27.7201 5.88134 30.5409 3.05726C33.6071 -0.0122554 36.1827 0.233181 36.1827 0.233181H41.334C41.334 0.233181 44.0324 0.0491804 47.0372 3.05726C49.7968 5.81994 49.7968 8.8282 49.7968 8.8282V14.108C49.7968 14.108 49.7968 16.9935 47.0372 19.7562C44.1551 22.6415 41.334 22.4575 41.334 22.4575H36.1827C36.1827 22.4575 33.362 22.5804 30.5409 19.7562C27.7198 16.9319 27.8426 14.108 27.8426 14.108ZM32.6248 12.8412V9.86675C32.6248 9.86675 32.5564 8.20661 34.1322 6.61564C35.8451 4.88641 37.2839 5.02468 37.2839 5.02468H40.1616C40.1616 5.02468 41.6691 4.92102 43.3476 6.61564C44.8893 8.17202 44.8893 9.86675 44.8893 9.86675V12.8412C44.8893 12.8412 44.8893 14.4667 43.3476 16.0231C41.7376 17.6486 40.1616 17.5449 40.1616 17.5449H37.2839C37.2839 17.5449 35.7081 17.6142 34.1322 16.0231C32.5562 14.432 32.6248 12.8412 32.6248 12.8412Z" fill="#1D2848"/>
<path fill-rule="evenodd" clip-rule="evenodd" d="M150.619 14.108V8.8282C150.619 8.8282 150.496 5.88134 153.317 3.05726C156.383 -0.0122554 158.959 0.233181 158.959 0.233181H164.11C164.11 0.233181 166.809 0.0491804 169.814 3.05726C172.573 5.81994 172.573 8.8282 172.573 8.8282V14.108C172.573 14.108 172.573 16.9935 169.814 19.7562C166.931 22.6415 164.11 22.4575 164.11 22.4575H158.959C158.959 22.4575 156.138 22.5804 153.317 19.7562C150.496 16.9319 150.619 14.108 150.619 14.108ZM155.401 12.8412V9.86675C155.401 9.86675 155.333 8.20661 156.909 6.61564C158.621 4.88641 160.06 5.02468 160.06 5.02468H162.938C162.938 5.02468 164.445 4.92102 166.124 6.61564C167.666 8.17202 167.666 9.86675 167.666 9.86675V12.8412C167.666 12.8412 167.666 14.4667 166.124 16.0231C164.514 17.6486 162.938 17.5449 162.938 17.5449H160.06C160.06 17.5449 158.485 17.6142 156.909 16.0231C155.333 14.432 155.401 12.8412 155.401 12.8412Z" fill="#1D2848"/>
<path d="M109.654 0.229443H90.3984V5.26367H97.6347V22.4537H102.541V5.26367H109.654V0.229443Z" fill="#1D2848"/>
<path d="M196.735 7.71939H201.886C201.886 7.71939 201.641 5.14087 199.188 2.68516C196.613 0.106688 193.546 0.229443 193.546 0.229443H188.886C188.886 0.229443 186.187 0.106688 183.244 3.05355C180.178 6.1232 180.423 8.82446 180.423 8.82446V13.7359C180.423 13.7359 180.178 16.8056 182.998 19.6297C185.942 22.5765 188.886 22.4537 188.886 22.4537H193.546C193.546 22.4537 196.551 22.4537 199.004 19.998C201.58 17.4195 201.886 14.9638 201.886 14.9638H196.735C196.735 14.9638 196.245 15.7005 195.386 16.56C194.527 17.4195 193.546 17.4195 193.546 17.4195H188.886C188.886 17.4195 187.659 17.4195 186.433 16.1916C185.206 14.9638 185.206 13.7359 185.206 13.7359V8.82446C185.206 8.82446 185.084 7.71939 186.433 6.36874C187.782 5.0181 188.886 5.14089 188.886 5.14089H193.546C193.546 5.14089 194.527 5.14088 195.631 6.24596C196.429 7.04407 196.735 7.71939 196.735 7.71939Z" fill="#1D2848"/>
<path d="M5.76885 0.108398H0.740234V22.4555H5.76885V13.8604H8.58978L14.9675 22.4555H21.2226L12.7598 11.4047L21.2226 0.108398H14.9675L8.58978 8.94899H5.76885V0.108398Z" fill="#1D2848"/>
<path fill-rule="evenodd" clip-rule="evenodd" d="M65.6212 16.685V22.456H60.8379V0.231696H73.1028C73.1028 0.231696 75.5558 0.108924 77.7635 2.31906C79.9711 4.52919 79.8485 6.98493 79.8485 6.98493V10.3002C79.8485 10.3002 80.0327 12.51 77.7635 14.7818C75.74 16.8075 73.1028 16.685 73.1028 16.685H65.6212ZM65.6201 12.0205V5.1445H72.3658C72.3658 5.1445 73.2243 5.14642 74.2055 6.12679C75.1867 7.10716 75.1867 7.96858 75.1867 7.96858V9.19644C75.1867 9.19644 75.1867 10.0559 74.2055 11.0382C73.2243 12.0205 72.3658 12.0205 72.3658 12.0205H65.6201Z" fill="#1D2848"/>
<path fill-rule="evenodd" clip-rule="evenodd" d="M126.945 16.685V22.456H122.162V0.231696H134.427C134.427 0.231696 136.88 0.108924 139.088 2.31906C141.295 4.52919 141.173 6.98493 141.173 6.98493V10.3002C141.173 10.3002 141.357 12.51 139.088 14.7818C137.064 16.8075 134.427 16.685 134.427 16.685H126.945ZM126.944 12.0205V5.1445H133.69C133.69 5.1445 134.548 5.14642 135.529 6.12679C136.511 7.10716 136.511 7.96858 136.511 7.96858V9.19644C136.511 9.19644 136.511 10.0559 135.529 11.0382C134.548 12.0205 133.69 12.0205 133.69 12.0205H126.944Z" fill="#1D2848"/>
</svg>
