<svg width="103" height="23" viewBox="0 0 103 23" fill="none" xmlns="http://www.w3.org/2000/svg">
<g>
<path d="M14.5911 0.304199H5.34644L0.5 22.6955H9.74465L14.5911 0.304199Z" fill="#1D2848"/>
<path d="M22.8717 8.5V0.279632H24.6097V7.06705H28.1339V8.5H22.8717ZM28.8327 8.5V0.279632H34.3718V1.71258H30.5707V3.67134H34.0868V5.10428H30.5707V7.06705H34.3879V8.5H28.8327ZM36.7184 8.5H34.8559L37.6937 0.279632H39.9334L42.7672 8.5H40.9048L38.8457 2.15811H38.7815L36.7184 8.5ZM36.602 5.26885H41.0011V6.62553H36.602V5.26885ZM46.2186 8.5H43.3045V0.279632H46.2427C47.0695 0.279632 47.7813 0.4442 48.378 0.773336C48.9748 1.0998 49.4337 1.56942 49.7548 2.1822C50.0786 2.79498 50.2405 3.52818 50.2405 4.38179C50.2405 5.23808 50.0786 5.97395 49.7548 6.58941C49.4337 7.20486 48.9721 7.67716 48.37 8.0063C47.7706 8.33543 47.0535 8.5 46.2186 8.5ZM45.0425 7.01086H46.1463C46.6601 7.01086 47.0923 6.91988 47.4428 6.73792C47.796 6.55328 48.0609 6.2683 48.2375 5.88297C48.4168 5.49496 48.5065 4.99457 48.5065 4.38179C48.5065 3.77436 48.4168 3.27798 48.2375 2.89265C48.0609 2.50732 47.7974 2.22367 47.4468 2.04171C47.0963 1.85975 46.6641 1.76877 46.1503 1.76877H45.0425V7.01086ZM51.0758 8.5V0.279632H56.6149V1.71258H52.8138V3.67134H56.3299V5.10428H52.8138V7.06705H56.631V8.5H51.0758ZM57.5445 8.5V0.279632H60.7877C61.4085 0.279632 61.9384 0.390682 62.3772 0.612782C62.8187 0.832206 63.1546 1.14395 63.3847 1.54801C63.6175 1.94939 63.7339 2.42169 63.7339 2.9649C63.7339 3.51078 63.6162 3.9804 63.3807 4.37376C63.1452 4.76444 62.804 5.06414 62.3572 5.27286C61.913 5.48158 61.3751 5.58594 60.7436 5.58594H58.5721V4.18912H60.4626C60.7944 4.18912 61.07 4.14363 61.2895 4.05265C61.5089 3.96167 61.6721 3.8252 61.7792 3.64324C61.8889 3.46128 61.9437 3.23516 61.9437 2.9649C61.9437 2.69196 61.8889 2.46183 61.7792 2.27452C61.6721 2.0872 61.5076 1.94538 61.2855 1.84905C61.066 1.75004 60.7891 1.70054 60.4546 1.70054H59.2825V8.5H57.5445ZM61.9839 4.75909L64.0269 8.5H62.1083L60.1094 4.75909H61.9839ZM24.6097 14.2796V22.5H22.8717V14.2796H24.6097ZM32.4632 14.2796V22.5H30.9621L27.3857 17.3261H27.3255V22.5H25.5875V14.2796H27.1128L30.661 19.4495H30.7333V14.2796H32.4632ZM34.9322 14.2796L36.919 20.5252H36.9953L38.9862 14.2796H40.9128L38.0791 22.5H35.8393L33.0015 14.2796H34.9322ZM41.4501 22.5V14.2796H46.9892V15.7126H43.1881V17.6713H46.7043V19.1043H43.1881V21.0671H47.0053V22.5H41.4501ZM52.3783 16.6438C52.3462 16.32 52.2084 16.0685 51.9648 15.8892C51.7213 15.7099 51.3909 15.6203 50.9734 15.6203C50.6898 15.6203 50.4503 15.6604 50.2549 15.7407C50.0596 15.8183 49.9098 15.9266 49.8054 16.0658C49.7037 16.2049 49.6529 16.3628 49.6529 16.5394C49.6475 16.6866 49.6783 16.815 49.7452 16.9248C49.8148 17.0345 49.9098 17.1295 50.0302 17.2097C50.1506 17.2873 50.2897 17.3556 50.4476 17.4145C50.6055 17.4706 50.7741 17.5188 50.9534 17.5589L51.6919 17.7356C52.0505 17.8158 52.3796 17.9229 52.6793 18.0567C52.979 18.1905 53.2386 18.355 53.458 18.5504C53.6774 18.7457 53.8473 18.9758 53.9678 19.2408C54.0909 19.5057 54.1537 19.8094 54.1564 20.1519C54.1537 20.655 54.0253 21.0911 53.7711 21.4604C53.5195 21.827 53.1556 22.112 52.6793 22.3154C52.2057 22.5161 51.6344 22.6164 50.9654 22.6164C50.3018 22.6164 49.7238 22.5147 49.2314 22.3113C48.7417 22.108 48.3591 21.8069 48.0835 21.4082C47.8105 21.0068 47.6674 20.5105 47.654 19.9191H49.3358C49.3545 20.1947 49.4334 20.4248 49.5726 20.6095C49.7144 20.7914 49.9031 20.9292 50.1385 21.0229C50.3767 21.1139 50.6456 21.1594 50.9453 21.1594C51.2397 21.1594 51.4952 21.1166 51.712 21.0309C51.9314 20.9453 52.1013 20.8262 52.2217 20.6737C52.3421 20.5212 52.4024 20.3459 52.4024 20.1479C52.4024 19.9632 52.3475 19.808 52.2378 19.6823C52.1308 19.5565 51.9729 19.4495 51.7642 19.3612C51.5581 19.2729 51.3052 19.1926 51.0055 19.1203L50.1104 18.8956C49.4174 18.727 48.8702 18.4634 48.4688 18.1048C48.0674 17.7463 47.868 17.2633 47.8707 16.6558C47.868 16.1581 48.0005 15.7233 48.2681 15.3513C48.5384 14.9794 48.909 14.689 49.3799 14.4803C49.8509 14.2716 50.3861 14.1672 50.9855 14.1672C51.5956 14.1672 52.1281 14.2716 52.583 14.4803C53.0406 14.689 53.3965 14.9794 53.6507 15.3513C53.9049 15.7233 54.036 16.1541 54.044 16.6438H52.3783ZM54.5602 15.7126V14.2796H61.3115V15.7126H58.7949V22.5H57.0769V15.7126H54.5602ZM69.586 16.9368C69.5298 16.7415 69.4508 16.5689 69.3492 16.419C69.2475 16.2665 69.123 16.138 68.9759 16.0337C68.8314 15.9266 68.6655 15.845 68.4782 15.7888C68.2935 15.7326 68.0888 15.7045 67.864 15.7045C67.4439 15.7045 67.0746 15.8089 66.7562 16.0176C66.4405 16.2264 66.1943 16.5301 66.0177 16.9288C65.8411 17.3248 65.7527 17.8091 65.7527 18.3818C65.7527 18.9544 65.8397 19.4414 66.0136 19.8428C66.1876 20.2442 66.4338 20.5506 66.7522 20.762C67.0706 20.9707 67.4466 21.0751 67.8801 21.0751C68.2734 21.0751 68.6093 21.0055 68.8876 20.8664C69.1685 20.7245 69.3826 20.5252 69.5298 20.2683C69.6796 20.0114 69.7546 19.7077 69.7546 19.3572L70.1078 19.4093H67.9885V18.1008H71.4283V19.1364C71.4283 19.8589 71.2758 20.4797 70.9708 20.9988C70.6657 21.5153 70.2456 21.914 69.7104 22.1949C69.1752 22.4732 68.5624 22.6124 67.8721 22.6124C67.1014 22.6124 66.4244 22.4425 65.8411 22.1026C65.2577 21.7601 64.8028 21.2744 64.4763 20.6456C64.1526 20.0141 63.9907 19.2648 63.9907 18.3978C63.9907 17.7315 64.087 17.1375 64.2797 16.6157C64.475 16.0912 64.7479 15.647 65.0985 15.2831C65.449 14.9192 65.8571 14.6422 66.3227 14.4522C66.7883 14.2622 67.2927 14.1672 67.8359 14.1672C68.3015 14.1672 68.735 14.2355 69.1364 14.372C69.5378 14.5057 69.8937 14.6957 70.2041 14.9419C70.5172 15.1881 70.7727 15.4811 70.9708 15.821C71.1688 16.1581 71.2959 16.5301 71.3521 16.9368H69.586ZM72.2817 22.5V14.2796H75.5249C76.1457 14.2796 76.6755 14.3907 77.1144 14.6128C77.5559 14.8322 77.8917 15.1439 78.1219 15.548C78.3547 15.9494 78.4711 16.4217 78.4711 16.9649C78.4711 17.5108 78.3533 17.9804 78.1179 18.3738C77.8824 18.7644 77.5412 19.0641 77.0943 19.2729C76.6501 19.4816 76.1123 19.5859 75.4808 19.5859H73.3093V18.1891H75.1998C75.5316 18.1891 75.8072 18.1436 76.0266 18.0527C76.2461 17.9617 76.4093 17.8252 76.5163 17.6432C76.626 17.4613 76.6809 17.2352 76.6809 16.9649C76.6809 16.692 76.626 16.4618 76.5163 16.2745C76.4093 16.0872 76.2447 15.9454 76.0226 15.849C75.8032 15.75 75.5262 15.7005 75.1918 15.7005H74.0197V22.5H72.2817ZM76.721 18.7591L78.7641 22.5H76.8455L74.8466 18.7591H76.721ZM86.8013 18.3898C86.8013 19.2862 86.6313 20.0489 86.2915 20.6777C85.9543 21.3065 85.4941 21.7869 84.9107 22.1187C84.3301 22.4478 83.6771 22.6124 82.952 22.6124C82.2215 22.6124 81.5659 22.4465 80.9852 22.1147C80.4045 21.7829 79.9456 21.3025 79.6084 20.6737C79.2713 20.0449 79.1027 19.2836 79.1027 18.3898C79.1027 17.4934 79.2713 16.7308 79.6084 16.1019C79.9456 15.4731 80.4045 14.9941 80.9852 14.665C81.5659 14.3332 82.2215 14.1672 82.952 14.1672C83.6771 14.1672 84.3301 14.3332 84.9107 14.665C85.4941 14.9941 85.9543 15.4731 86.2915 16.1019C86.6313 16.7308 86.8013 17.4934 86.8013 18.3898ZM85.0392 18.3898C85.0392 17.8091 84.9522 17.3195 84.7783 16.9207C84.607 16.522 84.3649 16.2197 84.0518 16.0136C83.7387 15.8076 83.3721 15.7045 82.952 15.7045C82.5319 15.7045 82.1653 15.8076 81.8522 16.0136C81.5391 16.2197 81.2956 16.522 81.1217 16.9207C80.9504 17.3195 80.8648 17.8091 80.8648 18.3898C80.8648 18.9705 80.9504 19.4602 81.1217 19.8589C81.2956 20.2576 81.5391 20.56 81.8522 20.766C82.1653 20.9721 82.5319 21.0751 82.952 21.0751C83.3721 21.0751 83.7387 20.9721 84.0518 20.766C84.3649 20.56 84.607 20.2576 84.7783 19.8589C84.9522 19.4602 85.0392 18.9705 85.0392 18.3898ZM92.7141 14.2796H94.4521V19.6181C94.4521 20.2175 94.3089 20.7419 94.0226 21.1915C93.739 21.641 93.3416 21.9916 92.8305 22.2431C92.3194 22.492 91.724 22.6164 91.0443 22.6164C90.362 22.6164 89.7653 22.492 89.2542 22.2431C88.7431 21.9916 88.3457 21.641 88.0621 21.1915C87.7784 20.7419 87.6366 20.2175 87.6366 19.6181V14.2796H89.3746V19.4695C89.3746 19.7826 89.4428 20.0609 89.5793 20.3044C89.7184 20.5479 89.9138 20.7393 90.1653 20.8784C90.4168 21.0176 90.7099 21.0871 91.0443 21.0871C91.3815 21.0871 91.6745 21.0176 91.9234 20.8784C92.1749 20.7393 92.3689 20.5479 92.5054 20.3044C92.6445 20.0609 92.7141 19.7826 92.7141 19.4695V14.2796ZM95.4299 22.5V14.2796H98.6731C99.2966 14.2796 99.8278 14.3987 100.267 14.6369C100.705 14.8723 101.04 15.2001 101.27 15.6203C101.503 16.0377 101.619 16.5194 101.619 17.0652C101.619 17.6111 101.502 18.0928 101.266 18.5102C101.031 18.9277 100.689 19.2528 100.243 19.4856C99.7983 19.7184 99.2605 19.8348 98.629 19.8348H96.5618V18.442H98.348C98.6825 18.442 98.9581 18.3845 99.1748 18.2694C99.3943 18.1517 99.5575 17.9898 99.6645 17.7837C99.7742 17.575 99.8291 17.3355 99.8291 17.0652C99.8291 16.7923 99.7742 16.5541 99.6645 16.3508C99.5575 16.1447 99.3943 15.9855 99.1748 15.8731C98.9554 15.7581 98.6771 15.7005 98.34 15.7005H97.1679V22.5H95.4299Z" fill="#1D2848"/>
</g>
</svg>
