<svg width="177" height="36" viewBox="0 0 177 36" fill="none" xmlns="http://www.w3.org/2000/svg">
<path d="M42.2942 13.7289H38.8944C40.9439 12.0411 41.402 9.0271 39.8347 6.83291C38.1951 4.51815 35.0124 3.96357 32.6976 5.57908L31.4438 6.47123V5.28974C31.4438 2.68564 29.1532 0.587891 26.308 0.587891C23.4869 0.587891 21.1962 2.68564 21.1962 5.28974V6.47123L17.8447 4.34937C15.5058 2.85442 12.3471 3.409 10.7799 5.69964C9.11614 8.11084 9.81539 11.3901 12.2507 12.9332L13.5286 13.7289H5.5958C2.75059 13.7289 0.459961 16.0196 0.459961 18.8648C0.459961 21.6859 2.75059 24.0007 5.5958 24.0007H6.34327L3.54629 26.0984C1.32799 27.7621 0.70108 30.8967 2.29247 33.1874C3.95619 35.5986 7.25953 36.129 9.57427 34.393L27.8752 21.1796L32.6494 29.45C34.2408 32.1988 37.9781 32.9221 40.3411 30.8003C40.4134 30.7279 40.4858 30.6556 40.5581 30.5833C42.3665 28.7749 42.5353 26.002 41.1127 24.0007H42.3424C45.1635 24.0007 47.4782 21.71 47.4782 18.8648C47.43 16.0196 45.1394 13.7289 42.2942 13.7289Z" fill="#1D2848"/>
<path d="M174.95 8.85938C175.837 8.85938 176.459 9.48983 176.459 10.368C176.459 11.2461 175.826 11.8765 174.95 11.8765C174.063 11.8765 173.441 11.2573 173.441 10.368C173.441 9.47857 174.063 8.85938 174.95 8.85938ZM174.95 11.5951C175.693 11.5951 176.181 11.111 176.181 10.368C176.181 9.62492 175.693 9.14083 174.95 9.14083C174.218 9.14083 173.719 9.63618 173.719 10.368C173.719 11.0997 174.218 11.5951 174.95 11.5951ZM175.616 10.0978C175.616 10.3342 175.482 10.5256 175.272 10.6156L175.627 11.1448H175.327L174.994 10.6494H174.639V11.1448H174.395V9.54612H175.039C175.383 9.54612 175.616 9.78254 175.616 10.0978ZM175.371 10.0978C175.371 9.90637 175.238 9.79379 175.017 9.79379H174.639V10.4017H175.017C175.238 10.4017 175.371 10.2891 175.371 10.0978Z" fill="#1D2848"/>
<path d="M160.694 9.22656H167.452L176.454 26.5075H171.888L169.877 22.6387H158.141L156.129 26.5075H151.719L160.694 9.22656ZM163.428 12.399L159.947 19.1567H168.071L164.538 12.399H163.428Z" fill="#1D2848"/>
<path d="M132.304 9.22656H154.201V12.9149H145.535V26.5075H140.97V12.9149H132.304V9.22656Z" fill="#1D2848"/>
<path d="M110.414 9.22656H114.954V13.6113C114.954 14.9353 115.461 15.8294 116.475 16.2937C117.49 16.7408 118.805 16.9643 120.422 16.9643H121.556C122.347 16.9643 123.087 16.9385 123.775 16.8869C124.48 16.8353 125.142 16.7666 125.761 16.6806V9.22656H130.3V26.5075H125.761V20.3689C125.021 20.4893 124.299 20.5753 123.594 20.6268C122.889 20.6612 122.098 20.6784 121.221 20.6784H120.422C118.857 20.6784 117.447 20.5753 116.192 20.3689C114.954 20.1454 113.905 19.7585 113.045 19.2083C112.202 18.6408 111.549 17.8756 111.085 16.9127C110.638 15.9498 110.414 14.7204 110.414 13.2244V9.22656Z" fill="#1D2848"/>
<path d="M88.9688 9.22656H108.055V12.7859H93.5082V16.0616H106.611V19.3888H93.5082V22.9224H108.184V26.5075H88.9688V9.22656Z" fill="#1D2848"/>
<path d="M59.1807 9.22656H66.6089L72.1027 17.9702H73.2891L78.7829 9.22656H85.8242V26.5075H81.2589V13.5081H80.382L74.9656 22.1486H69.7555L64.4165 13.5081H63.5138V26.5075H59.1807V9.22656Z" fill="#1D2848"/>
</svg>
