<svg width="27" height="32" viewBox="0 0 27 32" fill="none" xmlns="http://www.w3.org/2000/svg">
<path d="M7.37598 26.0113H19.6238V19.0655L16.0623 16.5031L7.37598 22.9171V26.0113Z" fill="#EC1D23"/>
<path d="M16.0623 15.1655L7.37598 21.499V0.481445H19.6238V17.8246L16.0623 15.1655Z" fill="#EC1D23"/>
<path fill-rule="evenodd" clip-rule="evenodd" d="M3.84678 30.4238V29.731C3.84678 29.731 3.83069 29.3443 4.20125 28.9737C4.60405 28.5709 4.94241 28.6032 4.94241 28.6032H5.61912C5.61912 28.6032 5.97361 28.579 6.36833 28.9737C6.73085 29.3363 6.73085 29.731 6.73085 29.731V30.4238C6.73085 30.4238 6.73085 30.8025 6.36833 31.165C5.98972 31.5436 5.61912 31.5194 5.61912 31.5194H4.94241C4.94241 31.5194 4.57185 31.5356 4.20125 31.165C3.83065 30.7944 3.84678 30.4238 3.84678 30.4238ZM4.47271 30.2567V29.8663C4.47271 29.8663 4.46372 29.6484 4.67076 29.4396C4.89582 29.2127 5.08487 29.2308 5.08487 29.2308H5.46297C5.46297 29.2308 5.66103 29.2172 5.88157 29.4396C6.08412 29.6439 6.08412 29.8663 6.08412 29.8663V30.2567C6.08412 30.2567 6.08412 30.47 5.88157 30.6743C5.67003 30.8876 5.46297 30.874 5.46297 30.874H5.08487C5.08487 30.874 4.87783 30.8831 4.67076 30.6743C4.4637 30.4655 4.47271 30.2567 4.47271 30.2567Z" fill="#EC1D23"/>
<path fill-rule="evenodd" clip-rule="evenodd" d="M19.9806 30.4238V29.731C19.9806 29.731 19.9645 29.3443 20.335 28.9737C20.7378 28.5709 21.0762 28.6032 21.0762 28.6032H21.7529C21.7529 28.6032 22.1074 28.579 22.5021 28.9737C22.8646 29.3363 22.8646 29.731 22.8646 29.731V30.4238C22.8646 30.4238 22.8646 30.8025 22.5021 31.165C22.1235 31.5436 21.7529 31.5194 21.7529 31.5194H21.0762C21.0762 31.5194 20.7056 31.5356 20.335 31.165C19.9644 30.7944 19.9806 30.4238 19.9806 30.4238ZM20.6065 30.2567V29.8663C20.6065 29.8663 20.5975 29.6484 20.8046 29.4396C21.0296 29.2127 21.2187 29.2308 21.2187 29.2308H21.5968C21.5968 29.2308 21.7948 29.2172 22.0154 29.4396C22.2179 29.6439 22.2179 29.8663 22.2179 29.8663V30.2567C22.2179 30.2567 22.2179 30.47 22.0154 30.6743C21.8038 30.8876 21.5968 30.874 21.5968 30.874H21.2187C21.2187 30.874 21.0116 30.8831 20.8046 30.6743C20.5975 30.4655 20.6065 30.2567 20.6065 30.2567Z" fill="#EC1D23"/>
<path d="M14.6024 28.6056H12.0723V29.2663H13.0231V31.5225H13.6677V29.2663H14.6024V28.6056Z" fill="#EC1D23"/>
<path d="M26.0445 29.5886H26.7213C26.7213 29.5886 26.6891 29.2502 26.3668 28.9279C26.0283 28.5895 25.6255 28.6056 25.6255 28.6056H25.0131C25.0131 28.6056 24.6585 28.5895 24.2718 28.9763C23.8689 29.3791 23.9011 29.7337 23.9011 29.7337V30.3783C23.9011 30.3783 23.8689 30.7812 24.2395 31.1519C24.6263 31.5386 25.0131 31.5225 25.0131 31.5225H25.6255C25.6255 31.5225 26.0203 31.5225 26.3426 31.2002C26.681 30.8618 26.7213 30.5395 26.7213 30.5395H26.0445C26.0445 30.5395 25.98 30.6362 25.8672 30.749C25.7544 30.8618 25.6255 30.8618 25.6255 30.8618H25.0131C25.0131 30.8618 24.8519 30.8618 24.6908 30.7006C24.5296 30.5395 24.5296 30.3783 24.5296 30.3783V29.7337C24.5296 29.7337 24.5135 29.5886 24.6908 29.4114C24.868 29.2341 25.0131 29.2502 25.0131 29.2502H25.6255C25.6255 29.2502 25.7544 29.2502 25.8994 29.3953C26.0042 29.5 26.0445 29.5886 26.0445 29.5886Z" fill="#EC1D23"/>
<path d="M0.947706 28.5889H0.287109V31.5213H0.947706V30.3934H1.31829L2.15612 31.5213H2.97783L1.8661 30.0712L2.97783 28.5889H2.15612L1.31829 29.7489H0.947706V28.5889Z" fill="#EC1D23"/>
<path fill-rule="evenodd" clip-rule="evenodd" d="M8.80513 30.7617V31.519H8.17676V28.6027H9.78797C9.78797 28.6027 10.1102 28.5866 10.4002 28.8766C10.6902 29.1666 10.6741 29.4889 10.6741 29.4889V29.9239C10.6741 29.9239 10.6983 30.2139 10.4002 30.512C10.1344 30.7778 9.78797 30.7617 9.78797 30.7617H8.80513ZM8.80859 30.1471V29.2451H9.69448C9.69448 29.2451 9.80723 29.2454 9.93608 29.374C10.0649 29.5026 10.0649 29.6156 10.0649 29.6156V29.7766C10.0649 29.7766 10.0649 29.8894 9.93608 30.0183C9.80723 30.1471 9.69448 30.1471 9.69448 30.1471H8.80859Z" fill="#EC1D23"/>
<path fill-rule="evenodd" clip-rule="evenodd" d="M16.8725 30.7617V31.519H16.2441V28.6027H17.8554C17.8554 28.6027 18.1776 28.5866 18.4676 28.8766C18.7576 29.1666 18.7415 29.4889 18.7415 29.4889V29.9239C18.7415 29.9239 18.7657 30.2139 18.4676 30.512C18.2018 30.7778 17.8554 30.7617 17.8554 30.7617H16.8725ZM16.8701 30.1471V29.2451H17.756C17.756 29.2451 17.8688 29.2454 17.9976 29.374C18.1265 29.5026 18.1265 29.6156 18.1265 29.6156V29.7766C18.1265 29.7766 18.1265 29.8894 17.9976 30.0183C17.8688 30.1471 17.756 30.1471 17.756 30.1471H16.8701Z" fill="#EC1D23"/>
</svg>
