<svg width="70" height="70" viewBox="0 0 70 70" fill="none" xmlns="http://www.w3.org/2000/svg">
<path fill-rule="evenodd" clip-rule="evenodd" d="M11.1111 0C4.97461 0 0 4.97461 0 11.1111V58.8889C0 65.0254 4.97461 70 11.1111 70H58.8889C65.0254 70 70 65.0254 70 58.8889V11.1111C70 4.97461 65.0254 0 58.8889 0H11.1111ZM23.5677 11.4863C23.5677 9.64538 22.0753 8.153 20.2344 8.153C18.3934 8.153 16.901 9.64538 16.901 11.4863V17.9967H10.3906C8.54968 17.9967 7.05729 19.4891 7.05729 21.3301C7.05729 23.171 8.54968 24.6634 10.3906 24.6634H16.901V30.9004C16.901 32.7413 18.3934 34.2337 20.2344 34.2337C22.0753 34.2337 23.5677 32.7413 23.5677 30.9004V24.6634H29.8047C31.6456 24.6634 33.138 23.171 33.138 21.3301C33.138 19.4891 31.6456 17.9967 29.8047 17.9967H23.5677V11.4863ZM39.9219 17.9967C38.0809 17.9967 36.5885 19.4891 36.5885 21.3301C36.5885 23.171 38.0809 24.6634 39.9219 24.6634L59.3359 24.6634C61.1769 24.6634 62.6693 23.171 62.6693 21.3301C62.6693 19.4891 61.1769 17.9967 59.3359 17.9967H39.9219ZM36.5885 45.3906C36.5885 43.5497 38.0809 42.0573 39.9219 42.0573H59.3359C61.1769 42.0573 62.6693 43.5497 62.6693 45.3906C62.6693 47.2316 61.1769 48.724 59.3359 48.724L39.9219 48.724C38.0809 48.724 36.5885 47.2316 36.5885 45.3906ZM39.9219 51.3542C38.0809 51.3542 36.5885 52.8465 36.5885 54.6875C36.5885 56.5285 38.0809 58.0208 39.9219 58.0208H59.3359C61.1769 58.0208 62.6693 56.5285 62.6693 54.6875C62.6693 52.8465 61.1769 51.3542 59.3359 51.3542L39.9219 51.3542ZM29.6148 41.2406C30.9166 42.5424 30.9166 44.6529 29.6148 45.9547L25.007 50.5625L29.413 54.9684C30.7147 56.2702 30.7147 58.3807 29.413 59.6825C28.1112 60.9842 26.0007 60.9842 24.6989 59.6825L20.293 55.2765L15.887 59.6825C14.5853 60.9842 12.4747 60.9842 11.173 59.6825C9.87123 58.3807 9.87123 56.2702 11.173 54.9684L15.5789 50.5625L10.9711 45.9547C9.66936 44.6529 9.66936 42.5424 10.9711 41.2406C12.2729 39.9389 14.3834 39.9389 15.6851 41.2406L20.293 45.8485L24.9008 41.2406C26.2025 39.9389 28.3131 39.9389 29.6148 41.2406Z" fill="white"/>
</svg>
