<svg width="12" height="16" viewBox="0 0 12 16" fill="none" xmlns="http://www.w3.org/2000/svg">
<path d="M11.3512 14.4231C10.9046 14.9144 7.68904 17.9949 2.84492 10.8219C-2.2611 3.25949 0.800317 1.1886 2.12836 0.677635L2.12856 0.676008C2.14963 0.667911 2.17066 0.661706 2.19205 0.65395C2.22926 0.640367 2.26417 0.628487 2.2982 0.617212C2.31279 0.612747 2.3281 0.607261 2.34285 0.602796C2.52968 0.54434 2.64867 0.525271 2.64867 0.525271C2.64867 0.525271 2.64784 0.528601 2.6472 0.533974C3.52729 0.387361 4.3527 0.719216 4.51062 1.45319L4.78821 3.11972C4.97698 3.99508 4.24826 5.0468 3.1608 5.46976L3.07281 5.5037C3.64819 7.40428 4.81008 9.59193 7.08762 11.583L7.25512 11.4443C8.14113 10.7099 9.45581 10.5648 10.1924 11.1185L11.4869 12.189C12.2052 12.7296 12.1779 13.6928 11.3512 14.4231Z" fill="#1E69FE"/>
</svg>
