<svg width="11" height="11" viewBox="0 0 11 11" fill="none" xmlns="http://www.w3.org/2000/svg">
<g clip-path="url(#clip0_701_7303)">
<path d="M8.89487 9.78206C8.61153 10.1096 6.5715 12.1633 3.49825 7.38128C0.258859 2.33966 2.2011 0.959068 3.04365 0.618423L3.04377 0.617338C3.05714 0.611941 3.07048 0.607804 3.08405 0.602633C3.10766 0.593578 3.12981 0.585658 3.1514 0.578141C3.16066 0.575165 3.17037 0.571507 3.17973 0.568531C3.29825 0.52956 3.37375 0.516848 3.37375 0.516848C3.37375 0.516848 3.37322 0.519067 3.37281 0.522649C3.93116 0.424908 4.45483 0.646144 4.55502 1.13546L4.73113 2.24648C4.85089 2.83005 4.38857 3.53119 3.69865 3.81317L3.64283 3.83579C4.00787 5.10285 4.745 6.56128 6.18994 7.88865L6.29621 7.79618C6.85831 7.30661 7.69238 7.20986 8.15968 7.57898L8.98093 8.29268C9.43665 8.65305 9.41932 9.29517 8.89487 9.78206Z" fill="white"/>
</g>
<defs>
<clipPath id="clip0_701_7303">
<rect width="10" height="10" fill="white" transform="translate(0.5 0.5)"/>
</clipPath>
</defs>
</svg>
