<svg width="44" height="69" viewBox="0 0 44 69" fill="none" xmlns="http://www.w3.org/2000/svg">
<path d="M4.35402 55.877L12.9309 48.026C13.701 47.3211 14.0861 46.9686 14.4871 46.8977C14.8381 46.8356 15.1996 46.9097 15.4979 47.105C15.8386 47.3281 16.0538 47.8037 16.4842 48.7549L24.7286 66.9747C25.0496 67.6841 25.2101 68.0389 25.4708 68.2483C25.7001 68.4326 25.9817 68.54 26.2755 68.5552C26.6095 68.5724 26.9654 68.4146 27.6773 68.099L33.7184 65.4207C34.4463 65.0979 34.8103 64.9365 35.0233 64.6716C35.2106 64.4386 35.3184 64.1518 35.3309 63.8531C35.3452 63.5135 35.1776 63.1524 34.8424 62.43L26.5709 44.6043C26.1188 43.6301 25.8928 43.1431 25.951 42.733C26.0018 42.3742 26.1898 42.0491 26.4755 41.826C26.8019 41.5711 27.3368 41.5241 28.4065 41.43H28.4066L40.3237 40.3822C41.9294 40.241 42.7323 40.1704 43.0916 39.8137C43.4036 39.5038 43.552 39.0654 43.4922 38.6298C43.4234 38.1281 42.8284 37.5845 41.6384 36.4971L4.35256 2.42744C3.16589 1.34314 2.57256 0.800986 2.06735 0.777219C1.62857 0.756576 1.20555 0.943069 0.924806 1.28091C0.601562 1.6699 0.601562 2.47363 0.601562 4.08107V54.2247C0.601562 55.8338 0.601562 56.6384 0.925043 57.0275C1.20598 57.3654 1.62928 57.5517 2.06822 57.5308C2.57362 57.5067 3.16709 56.9635 4.35402 55.877Z" fill="white"/>
</svg>
