<svg width="57" height="75" viewBox="0 0 57 75" fill="none" xmlns="http://www.w3.org/2000/svg">
<path fill-rule="evenodd" clip-rule="evenodd" d="M51.4514 27.9805H56.2063V74.4587H0V27.9805H5.47122C5.42559 27.3277 5.40234 26.6681 5.40234 26.0025C5.40234 11.9739 15.7262 0.601562 28.4613 0.601562C41.1964 0.601562 51.5203 11.9739 51.5203 26.0025C51.5203 26.6681 51.4971 27.3277 51.4514 27.9805ZM43.0261 27.9805C43.0882 27.3365 43.1203 26.6768 43.1203 26.0025C43.1203 15.8301 35.8111 9.00156 28.4613 9.00156C21.1115 9.00156 13.8023 15.8301 13.8023 26.0025C13.8023 26.6768 13.8345 27.3365 13.8966 27.9805H43.0261ZM31.1469 51.1018C32.362 50.1808 33.147 48.7217 33.147 47.0793C33.147 44.2935 30.8886 42.0352 28.1028 42.0352C25.317 42.0352 23.0586 44.2935 23.0586 47.0793C23.0586 48.7217 23.8435 50.1808 25.0587 51.1018L23.0586 60.769H33.147L31.1469 51.1018Z" fill="white"/>
</svg>
