<svg width="13" height="13" viewBox="0 0 13 13" fill="none" xmlns="http://www.w3.org/2000/svg">
<g clip-path="url(#clip0_705_7679)">
<path d="M6.50088 6.7313C8.21518 6.7313 9.61653 5.32995 9.61653 3.61565C9.61653 1.90135 8.21518 0.5 6.50088 0.5C4.78658 0.5 3.38525 1.90135 3.38525 3.61565C3.38525 5.32995 4.78661 6.7313 6.50088 6.7313Z" fill="white"/>
<path d="M11.8479 9.2215C11.7663 9.01742 11.6574 8.82695 11.535 8.65007C10.9091 7.72489 9.94315 7.11265 8.85471 6.96299C8.71867 6.94939 8.56901 6.97658 8.46016 7.05822C7.88872 7.47999 7.20846 7.69767 6.50096 7.69767C5.79346 7.69767 5.1132 7.47999 4.54177 7.05822C4.43292 6.97658 4.28326 6.93577 4.14721 6.96299C3.05878 7.11265 2.07919 7.72489 1.46695 8.65007C1.34451 8.82695 1.23565 9.03103 1.15404 9.2215C1.11323 9.30314 1.12682 9.39838 1.16763 9.48002C1.27649 9.67049 1.41253 9.86098 1.53497 10.0242C1.72544 10.2828 1.92953 10.514 2.16083 10.7317C2.3513 10.9222 2.56899 11.0991 2.78669 11.2759C3.86151 12.0787 5.15404 12.5004 6.48737 12.5004C7.8207 12.5004 9.11323 12.0786 10.188 11.2759C10.4057 11.1127 10.6234 10.9222 10.8139 10.7317C11.0316 10.514 11.2493 10.2827 11.4398 10.0242C11.5758 9.84736 11.6983 9.67049 11.8071 9.48002C11.8751 9.39838 11.8887 9.30312 11.8479 9.2215Z" fill="white"/>
</g>
<defs>
<clipPath id="clip0_705_7679">
<rect width="12" height="12" fill="white" transform="translate(0.5 0.5)"/>
</clipPath>
</defs>
</svg>
