<svg width="16" height="16" viewBox="0 0 16 16" fill="none" xmlns="http://www.w3.org/2000/svg">
<g clip-path="url(#clip0_1240_2631)">
<path d="M8.0022 8.29671C10.2 8.29671 11.9966 6.5001 11.9966 4.30229C11.9966 2.10447 10.2 0.307861 8.0022 0.307861C5.80439 0.307861 4.00781 2.10447 4.00781 4.30229C4.00781 6.5001 5.80442 8.29671 8.0022 8.29671Z" fill="#1E69FE"/>
<path d="M14.8569 11.4888C14.7522 11.2272 14.6127 10.983 14.4557 10.7562C13.6533 9.57008 12.4149 8.78516 11.0195 8.59329C10.8451 8.57586 10.6532 8.61071 10.5136 8.71538C9.78104 9.25611 8.90891 9.53519 8.00186 9.53519C7.09481 9.53519 6.22268 9.25611 5.49008 8.71538C5.35052 8.61071 5.15865 8.5584 4.98423 8.59329C3.5888 8.78516 2.33293 9.57008 1.548 10.7562C1.39102 10.983 1.25146 11.2446 1.14683 11.4888C1.09451 11.5935 1.11194 11.7156 1.16426 11.8202C1.30381 12.0644 1.47822 12.3087 1.63521 12.518C1.8794 12.8494 2.14105 13.1459 2.43759 13.425C2.68178 13.6692 2.96086 13.8959 3.23998 14.1227C4.61795 15.1518 6.27503 15.6925 7.98443 15.6925C9.69384 15.6925 11.3509 15.1518 12.7289 14.1227C13.008 13.9134 13.2871 13.6692 13.5313 13.425C13.8104 13.1459 14.0894 12.8494 14.3337 12.518C14.5081 12.2912 14.6651 12.0644 14.8046 11.8202C14.8918 11.7156 14.9092 11.5935 14.8569 11.4888Z" fill="#1E69FE"/>
</g>
<defs>
<clipPath id="clip0_1240_2631">
<rect width="15.3846" height="15.3846" fill="white" transform="translate(0.308594 0.307617)"/>
</clipPath>
</defs>
</svg>
